%TF.GenerationSoftware,KiCad,Pcbnew,9.0.7*%
%TF.CreationDate,2026-01-10T19:40:59+02:00*%
%TF.ProjectId,mk-52 keyboard,6d6b2d35-3220-46b6-9579-626f6172642e,rev?*%
%TF.SameCoordinates,Original*%
%TF.FileFunction,Legend,Top*%
%TF.FilePolarity,Positive*%
%FSLAX46Y46*%
G04 Gerber Fmt 4.6, Leading zero omitted, Abs format (unit mm)*
G04 Created by KiCad (PCBNEW 9.0.7) date 2026-01-10 19:40:59*
%MOMM*%
%LPD*%
G01*
G04 APERTURE LIST*
G04 Aperture macros list*
%AMRoundRect*
0 Rectangle with rounded corners*
0 $1 Rounding radius*
0 $2 $3 $4 $5 $6 $7 $8 $9 X,Y pos of 4 corners*
0 Add a 4 corners polygon primitive as box body*
4,1,4,$2,$3,$4,$5,$6,$7,$8,$9,$2,$3,0*
0 Add four circle primitives for the rounded corners*
1,1,$1+$1,$2,$3*
1,1,$1+$1,$4,$5*
1,1,$1+$1,$6,$7*
1,1,$1+$1,$8,$9*
0 Add four rect primitives between the rounded corners*
20,1,$1+$1,$2,$3,$4,$5,0*
20,1,$1+$1,$4,$5,$6,$7,0*
20,1,$1+$1,$6,$7,$8,$9,0*
20,1,$1+$1,$8,$9,$2,$3,0*%
G04 Aperture macros list end*
%ADD10C,0.120000*%
%ADD11RoundRect,0.200000X-0.700000X-0.350000X0.700000X-0.350000X0.700000X0.350000X-0.700000X0.350000X0*%
G04 APERTURE END LIST*
D10*
%TO.C,SW28*%
X83300000Y-51800000D02*
X83300000Y-49400000D01*
X83700000Y-48800000D02*
X84300000Y-48200000D01*
X84300000Y-48200000D02*
X87100000Y-48200000D01*
X84300000Y-53000000D02*
X83700000Y-52400000D01*
X87100000Y-48200000D02*
X87700000Y-48800000D01*
X87100000Y-53000000D02*
X84300000Y-53000000D01*
X87700000Y-52400000D02*
X87100000Y-53000000D01*
X88100000Y-49400000D02*
X88100000Y-51800000D01*
X87500000Y-50600000D02*
G75*
G02*
X83900000Y-50600000I-1800000J0D01*
G01*
X83900000Y-50600000D02*
G75*
G02*
X87500000Y-50600000I1800000J0D01*
G01*
%TO.C,SW25*%
X95700000Y-51800000D02*
X95700000Y-49400000D01*
X96100000Y-48800000D02*
X96700000Y-48200000D01*
X96700000Y-48200000D02*
X99500000Y-48200000D01*
X96700000Y-53000000D02*
X96100000Y-52400000D01*
X99500000Y-48200000D02*
X100100000Y-48800000D01*
X99500000Y-53000000D02*
X96700000Y-53000000D01*
X100100000Y-52400000D02*
X99500000Y-53000000D01*
X100500000Y-49400000D02*
X100500000Y-51800000D01*
X99900000Y-50600000D02*
G75*
G02*
X96300000Y-50600000I-1800000J0D01*
G01*
X96300000Y-50600000D02*
G75*
G02*
X99900000Y-50600000I1800000J0D01*
G01*
%TO.C,SW22*%
X108100000Y-51800000D02*
X108100000Y-49400000D01*
X108500000Y-48800000D02*
X109100000Y-48200000D01*
X109100000Y-48200000D02*
X111900000Y-48200000D01*
X109100000Y-53000000D02*
X108500000Y-52400000D01*
X111900000Y-48200000D02*
X112500000Y-48800000D01*
X111900000Y-53000000D02*
X109100000Y-53000000D01*
X112500000Y-52400000D02*
X111900000Y-53000000D01*
X112900000Y-49400000D02*
X112900000Y-51800000D01*
X112300000Y-50600000D02*
G75*
G02*
X108700000Y-50600000I-1800000J0D01*
G01*
X108700000Y-50600000D02*
G75*
G02*
X112300000Y-50600000I1800000J0D01*
G01*
%TO.C,SW19*%
X120500000Y-51800000D02*
X120500000Y-49400000D01*
X120900000Y-48800000D02*
X121500000Y-48200000D01*
X121500000Y-48200000D02*
X124300000Y-48200000D01*
X121500000Y-53000000D02*
X120900000Y-52400000D01*
X124300000Y-48200000D02*
X124900000Y-48800000D01*
X124300000Y-53000000D02*
X121500000Y-53000000D01*
X124900000Y-52400000D02*
X124300000Y-53000000D01*
X125300000Y-49400000D02*
X125300000Y-51800000D01*
X124700000Y-50600000D02*
G75*
G02*
X121100000Y-50600000I-1800000J0D01*
G01*
X121100000Y-50600000D02*
G75*
G02*
X124700000Y-50600000I1800000J0D01*
G01*
%TO.C,SW1*%
X132900000Y-51800000D02*
X132900000Y-49400000D01*
X133300000Y-48800000D02*
X133900000Y-48200000D01*
X133900000Y-48200000D02*
X136700000Y-48200000D01*
X133900000Y-53000000D02*
X133300000Y-52400000D01*
X136700000Y-48200000D02*
X137300000Y-48800000D01*
X136700000Y-53000000D02*
X133900000Y-53000000D01*
X137300000Y-52400000D02*
X136700000Y-53000000D01*
X137700000Y-49400000D02*
X137700000Y-51800000D01*
X137100000Y-50600000D02*
G75*
G02*
X133500000Y-50600000I-1800000J0D01*
G01*
X133500000Y-50600000D02*
G75*
G02*
X137100000Y-50600000I1800000J0D01*
G01*
%TO.C,SW14*%
X145300000Y-51800000D02*
X145300000Y-49400000D01*
X145700000Y-48800000D02*
X146300000Y-48200000D01*
X146300000Y-48200000D02*
X149100000Y-48200000D01*
X146300000Y-53000000D02*
X145700000Y-52400000D01*
X149100000Y-48200000D02*
X149700000Y-48800000D01*
X149100000Y-53000000D02*
X146300000Y-53000000D01*
X149700000Y-52400000D02*
X149100000Y-53000000D01*
X150100000Y-49400000D02*
X150100000Y-51800000D01*
X149500000Y-50600000D02*
G75*
G02*
X145900000Y-50600000I-1800000J0D01*
G01*
X145900000Y-50600000D02*
G75*
G02*
X149500000Y-50600000I1800000J0D01*
G01*
%TO.C,SW3*%
X157700000Y-51800000D02*
X157700000Y-49400000D01*
X158100000Y-48800000D02*
X158700000Y-48200000D01*
X158700000Y-48200000D02*
X161500000Y-48200000D01*
X158700000Y-53000000D02*
X158100000Y-52400000D01*
X161500000Y-48200000D02*
X162100000Y-48800000D01*
X161500000Y-53000000D02*
X158700000Y-53000000D01*
X162100000Y-52400000D02*
X161500000Y-53000000D01*
X162500000Y-49400000D02*
X162500000Y-51800000D01*
X161900000Y-50600000D02*
G75*
G02*
X158300000Y-50600000I-1800000J0D01*
G01*
X158300000Y-50600000D02*
G75*
G02*
X161900000Y-50600000I1800000J0D01*
G01*
%TO.C,SW4*%
X174300000Y-50600000D02*
G75*
G02*
X170700000Y-50600000I-1800000J0D01*
G01*
X170700000Y-50600000D02*
G75*
G02*
X174300000Y-50600000I1800000J0D01*
G01*
X174900000Y-49400000D02*
X174900000Y-51800000D01*
X174500000Y-52400000D02*
X173900000Y-53000000D01*
X173900000Y-53000000D02*
X171100000Y-53000000D01*
X173900000Y-48200000D02*
X174500000Y-48800000D01*
X171100000Y-53000000D02*
X170500000Y-52400000D01*
X171100000Y-48200000D02*
X173900000Y-48200000D01*
X170500000Y-48800000D02*
X171100000Y-48200000D01*
X170100000Y-51800000D02*
X170100000Y-49400000D01*
%TO.C,SW2*%
X95700000Y-77000000D02*
X95700000Y-74600000D01*
X96100000Y-74000000D02*
X96700000Y-73400000D01*
X96700000Y-73400000D02*
X99500000Y-73400000D01*
X96700000Y-78200000D02*
X96100000Y-77600000D01*
X99500000Y-73400000D02*
X100100000Y-74000000D01*
X99500000Y-78200000D02*
X96700000Y-78200000D01*
X100100000Y-77600000D02*
X99500000Y-78200000D01*
X100500000Y-74600000D02*
X100500000Y-77000000D01*
X99900000Y-75800000D02*
G75*
G02*
X96300000Y-75800000I-1800000J0D01*
G01*
X96300000Y-75800000D02*
G75*
G02*
X99900000Y-75800000I1800000J0D01*
G01*
%TO.C,SW32*%
X170100000Y-89600000D02*
X170100000Y-87200000D01*
X170500000Y-86600000D02*
X171100000Y-86000000D01*
X171100000Y-86000000D02*
X173900000Y-86000000D01*
X171100000Y-90800000D02*
X170500000Y-90200000D01*
X173900000Y-86000000D02*
X174500000Y-86600000D01*
X173900000Y-90800000D02*
X171100000Y-90800000D01*
X174500000Y-90200000D02*
X173900000Y-90800000D01*
X174900000Y-87200000D02*
X174900000Y-89600000D01*
X174300000Y-88400000D02*
G75*
G02*
X170700000Y-88400000I-1800000J0D01*
G01*
X170700000Y-88400000D02*
G75*
G02*
X174300000Y-88400000I1800000J0D01*
G01*
%TO.C,SW31*%
X83300000Y-64400000D02*
X83300000Y-62000000D01*
X83700000Y-61400000D02*
X84300000Y-60800000D01*
X84300000Y-60800000D02*
X87100000Y-60800000D01*
X84300000Y-65600000D02*
X83700000Y-65000000D01*
X87100000Y-60800000D02*
X87700000Y-61400000D01*
X87100000Y-65600000D02*
X84300000Y-65600000D01*
X87700000Y-65000000D02*
X87100000Y-65600000D01*
X88100000Y-62000000D02*
X88100000Y-64400000D01*
X87500000Y-63200000D02*
G75*
G02*
X83900000Y-63200000I-1800000J0D01*
G01*
X83900000Y-63200000D02*
G75*
G02*
X87500000Y-63200000I1800000J0D01*
G01*
%TO.C,SW30*%
X108100000Y-89600000D02*
X108100000Y-87200000D01*
X108500000Y-86600000D02*
X109100000Y-86000000D01*
X109100000Y-86000000D02*
X111900000Y-86000000D01*
X109100000Y-90800000D02*
X108500000Y-90200000D01*
X111900000Y-86000000D02*
X112500000Y-86600000D01*
X111900000Y-90800000D02*
X109100000Y-90800000D01*
X112500000Y-90200000D02*
X111900000Y-90800000D01*
X112900000Y-87200000D02*
X112900000Y-89600000D01*
X112300000Y-88400000D02*
G75*
G02*
X108700000Y-88400000I-1800000J0D01*
G01*
X108700000Y-88400000D02*
G75*
G02*
X112300000Y-88400000I1800000J0D01*
G01*
%TO.C,SW29*%
X170100000Y-77000000D02*
X170100000Y-74600000D01*
X170500000Y-74000000D02*
X171100000Y-73400000D01*
X171100000Y-73400000D02*
X173900000Y-73400000D01*
X171100000Y-78200000D02*
X170500000Y-77600000D01*
X173900000Y-73400000D02*
X174500000Y-74000000D01*
X173900000Y-78200000D02*
X171100000Y-78200000D01*
X174500000Y-77600000D02*
X173900000Y-78200000D01*
X174900000Y-74600000D02*
X174900000Y-77000000D01*
X174300000Y-75800000D02*
G75*
G02*
X170700000Y-75800000I-1800000J0D01*
G01*
X170700000Y-75800000D02*
G75*
G02*
X174300000Y-75800000I1800000J0D01*
G01*
%TO.C,SW27*%
X120500000Y-89600000D02*
X120500000Y-87200000D01*
X120900000Y-86600000D02*
X121500000Y-86000000D01*
X121500000Y-86000000D02*
X124300000Y-86000000D01*
X121500000Y-90800000D02*
X120900000Y-90200000D01*
X124300000Y-86000000D02*
X124900000Y-86600000D01*
X124300000Y-90800000D02*
X121500000Y-90800000D01*
X124900000Y-90200000D02*
X124300000Y-90800000D01*
X125300000Y-87200000D02*
X125300000Y-89600000D01*
X124700000Y-88400000D02*
G75*
G02*
X121100000Y-88400000I-1800000J0D01*
G01*
X121100000Y-88400000D02*
G75*
G02*
X124700000Y-88400000I1800000J0D01*
G01*
%TO.C,SW26*%
X157700000Y-77000000D02*
X157700000Y-74600000D01*
X158100000Y-74000000D02*
X158700000Y-73400000D01*
X158700000Y-73400000D02*
X161500000Y-73400000D01*
X158700000Y-78200000D02*
X158100000Y-77600000D01*
X161500000Y-73400000D02*
X162100000Y-74000000D01*
X161500000Y-78200000D02*
X158700000Y-78200000D01*
X162100000Y-77600000D02*
X161500000Y-78200000D01*
X162500000Y-74600000D02*
X162500000Y-77000000D01*
X161900000Y-75800000D02*
G75*
G02*
X158300000Y-75800000I-1800000J0D01*
G01*
X158300000Y-75800000D02*
G75*
G02*
X161900000Y-75800000I1800000J0D01*
G01*
%TO.C,SW24*%
X132900000Y-89600000D02*
X132900000Y-87200000D01*
X133300000Y-86600000D02*
X133900000Y-86000000D01*
X133900000Y-86000000D02*
X136700000Y-86000000D01*
X133900000Y-90800000D02*
X133300000Y-90200000D01*
X136700000Y-86000000D02*
X137300000Y-86600000D01*
X136700000Y-90800000D02*
X133900000Y-90800000D01*
X137300000Y-90200000D02*
X136700000Y-90800000D01*
X137700000Y-87200000D02*
X137700000Y-89600000D01*
X137100000Y-88400000D02*
G75*
G02*
X133500000Y-88400000I-1800000J0D01*
G01*
X133500000Y-88400000D02*
G75*
G02*
X137100000Y-88400000I1800000J0D01*
G01*
%TO.C,SW23*%
X145300000Y-89600000D02*
X145300000Y-87200000D01*
X145700000Y-86600000D02*
X146300000Y-86000000D01*
X146300000Y-86000000D02*
X149100000Y-86000000D01*
X146300000Y-90800000D02*
X145700000Y-90200000D01*
X149100000Y-86000000D02*
X149700000Y-86600000D01*
X149100000Y-90800000D02*
X146300000Y-90800000D01*
X149700000Y-90200000D02*
X149100000Y-90800000D01*
X150100000Y-87200000D02*
X150100000Y-89600000D01*
X149500000Y-88400000D02*
G75*
G02*
X145900000Y-88400000I-1800000J0D01*
G01*
X145900000Y-88400000D02*
G75*
G02*
X149500000Y-88400000I1800000J0D01*
G01*
%TO.C,SW21*%
X108100000Y-77000000D02*
X108100000Y-74600000D01*
X108500000Y-74000000D02*
X109100000Y-73400000D01*
X109100000Y-73400000D02*
X111900000Y-73400000D01*
X109100000Y-78200000D02*
X108500000Y-77600000D01*
X111900000Y-73400000D02*
X112500000Y-74000000D01*
X111900000Y-78200000D02*
X109100000Y-78200000D01*
X112500000Y-77600000D02*
X111900000Y-78200000D01*
X112900000Y-74600000D02*
X112900000Y-77000000D01*
X112300000Y-75800000D02*
G75*
G02*
X108700000Y-75800000I-1800000J0D01*
G01*
X108700000Y-75800000D02*
G75*
G02*
X112300000Y-75800000I1800000J0D01*
G01*
%TO.C,SW9*%
X120500000Y-64400000D02*
X120500000Y-62000000D01*
X120900000Y-61400000D02*
X121500000Y-60800000D01*
X121500000Y-60800000D02*
X124300000Y-60800000D01*
X121500000Y-65600000D02*
X120900000Y-65000000D01*
X124300000Y-60800000D02*
X124900000Y-61400000D01*
X124300000Y-65600000D02*
X121500000Y-65600000D01*
X124900000Y-65000000D02*
X124300000Y-65600000D01*
X125300000Y-62000000D02*
X125300000Y-64400000D01*
X124700000Y-63200000D02*
G75*
G02*
X121100000Y-63200000I-1800000J0D01*
G01*
X121100000Y-63200000D02*
G75*
G02*
X124700000Y-63200000I1800000J0D01*
G01*
%TO.C,SW8*%
X170100000Y-64400000D02*
X170100000Y-62000000D01*
X170500000Y-61400000D02*
X171100000Y-60800000D01*
X171100000Y-60800000D02*
X173900000Y-60800000D01*
X171100000Y-65600000D02*
X170500000Y-65000000D01*
X173900000Y-60800000D02*
X174500000Y-61400000D01*
X173900000Y-65600000D02*
X171100000Y-65600000D01*
X174500000Y-65000000D02*
X173900000Y-65600000D01*
X174900000Y-62000000D02*
X174900000Y-64400000D01*
X174300000Y-63200000D02*
G75*
G02*
X170700000Y-63200000I-1800000J0D01*
G01*
X170700000Y-63200000D02*
G75*
G02*
X174300000Y-63200000I1800000J0D01*
G01*
%TO.C,SW7*%
X145300000Y-64400000D02*
X145300000Y-62000000D01*
X145700000Y-61400000D02*
X146300000Y-60800000D01*
X146300000Y-60800000D02*
X149100000Y-60800000D01*
X146300000Y-65600000D02*
X145700000Y-65000000D01*
X149100000Y-60800000D02*
X149700000Y-61400000D01*
X149100000Y-65600000D02*
X146300000Y-65600000D01*
X149700000Y-65000000D02*
X149100000Y-65600000D01*
X150100000Y-62000000D02*
X150100000Y-64400000D01*
X149500000Y-63200000D02*
G75*
G02*
X145900000Y-63200000I-1800000J0D01*
G01*
X145900000Y-63200000D02*
G75*
G02*
X149500000Y-63200000I1800000J0D01*
G01*
%TO.C,SW6*%
X95700000Y-89600000D02*
X95700000Y-87200000D01*
X96100000Y-86600000D02*
X96700000Y-86000000D01*
X96700000Y-86000000D02*
X99500000Y-86000000D01*
X96700000Y-90800000D02*
X96100000Y-90200000D01*
X99500000Y-86000000D02*
X100100000Y-86600000D01*
X99500000Y-90800000D02*
X96700000Y-90800000D01*
X100100000Y-90200000D02*
X99500000Y-90800000D01*
X100500000Y-87200000D02*
X100500000Y-89600000D01*
X99900000Y-88400000D02*
G75*
G02*
X96300000Y-88400000I-1800000J0D01*
G01*
X96300000Y-88400000D02*
G75*
G02*
X99900000Y-88400000I1800000J0D01*
G01*
%TO.C,SW5*%
X132900000Y-64400000D02*
X132900000Y-62000000D01*
X133300000Y-61400000D02*
X133900000Y-60800000D01*
X133900000Y-60800000D02*
X136700000Y-60800000D01*
X133900000Y-65600000D02*
X133300000Y-65000000D01*
X136700000Y-60800000D02*
X137300000Y-61400000D01*
X136700000Y-65600000D02*
X133900000Y-65600000D01*
X137300000Y-65000000D02*
X136700000Y-65600000D01*
X137700000Y-62000000D02*
X137700000Y-64400000D01*
X137100000Y-63200000D02*
G75*
G02*
X133500000Y-63200000I-1800000J0D01*
G01*
X133500000Y-63200000D02*
G75*
G02*
X137100000Y-63200000I1800000J0D01*
G01*
%TO.C,SW20*%
X157700000Y-89600000D02*
X157700000Y-87200000D01*
X158100000Y-86600000D02*
X158700000Y-86000000D01*
X158700000Y-86000000D02*
X161500000Y-86000000D01*
X158700000Y-90800000D02*
X158100000Y-90200000D01*
X161500000Y-86000000D02*
X162100000Y-86600000D01*
X161500000Y-90800000D02*
X158700000Y-90800000D01*
X162100000Y-90200000D02*
X161500000Y-90800000D01*
X162500000Y-87200000D02*
X162500000Y-89600000D01*
X161900000Y-88400000D02*
G75*
G02*
X158300000Y-88400000I-1800000J0D01*
G01*
X158300000Y-88400000D02*
G75*
G02*
X161900000Y-88400000I1800000J0D01*
G01*
%TO.C,SW18*%
X120500000Y-77000000D02*
X120500000Y-74600000D01*
X120900000Y-74000000D02*
X121500000Y-73400000D01*
X121500000Y-73400000D02*
X124300000Y-73400000D01*
X121500000Y-78200000D02*
X120900000Y-77600000D01*
X124300000Y-73400000D02*
X124900000Y-74000000D01*
X124300000Y-78200000D02*
X121500000Y-78200000D01*
X124900000Y-77600000D02*
X124300000Y-78200000D01*
X125300000Y-74600000D02*
X125300000Y-77000000D01*
X124700000Y-75800000D02*
G75*
G02*
X121100000Y-75800000I-1800000J0D01*
G01*
X121100000Y-75800000D02*
G75*
G02*
X124700000Y-75800000I1800000J0D01*
G01*
%TO.C,SW17*%
X145300000Y-77000000D02*
X145300000Y-74600000D01*
X145700000Y-74000000D02*
X146300000Y-73400000D01*
X146300000Y-73400000D02*
X149100000Y-73400000D01*
X146300000Y-78200000D02*
X145700000Y-77600000D01*
X149100000Y-73400000D02*
X149700000Y-74000000D01*
X149100000Y-78200000D02*
X146300000Y-78200000D01*
X149700000Y-77600000D02*
X149100000Y-78200000D01*
X150100000Y-74600000D02*
X150100000Y-77000000D01*
X149500000Y-75800000D02*
G75*
G02*
X145900000Y-75800000I-1800000J0D01*
G01*
X145900000Y-75800000D02*
G75*
G02*
X149500000Y-75800000I1800000J0D01*
G01*
%TO.C,SW16*%
X95700000Y-64400000D02*
X95700000Y-62000000D01*
X96100000Y-61400000D02*
X96700000Y-60800000D01*
X96700000Y-60800000D02*
X99500000Y-60800000D01*
X96700000Y-65600000D02*
X96100000Y-65000000D01*
X99500000Y-60800000D02*
X100100000Y-61400000D01*
X99500000Y-65600000D02*
X96700000Y-65600000D01*
X100100000Y-65000000D02*
X99500000Y-65600000D01*
X100500000Y-62000000D02*
X100500000Y-64400000D01*
X99900000Y-63200000D02*
G75*
G02*
X96300000Y-63200000I-1800000J0D01*
G01*
X96300000Y-63200000D02*
G75*
G02*
X99900000Y-63200000I1800000J0D01*
G01*
%TO.C,SW15*%
X132900000Y-77000000D02*
X132900000Y-74600000D01*
X133300000Y-74000000D02*
X133900000Y-73400000D01*
X133900000Y-73400000D02*
X136700000Y-73400000D01*
X133900000Y-78200000D02*
X133300000Y-77600000D01*
X136700000Y-73400000D02*
X137300000Y-74000000D01*
X136700000Y-78200000D02*
X133900000Y-78200000D01*
X137300000Y-77600000D02*
X136700000Y-78200000D01*
X137700000Y-74600000D02*
X137700000Y-77000000D01*
X137100000Y-75800000D02*
G75*
G02*
X133500000Y-75800000I-1800000J0D01*
G01*
X133500000Y-75800000D02*
G75*
G02*
X137100000Y-75800000I1800000J0D01*
G01*
%TO.C,SW13*%
X83300000Y-89600000D02*
X83300000Y-87200000D01*
X83700000Y-86600000D02*
X84300000Y-86000000D01*
X84300000Y-86000000D02*
X87100000Y-86000000D01*
X84300000Y-90800000D02*
X83700000Y-90200000D01*
X87100000Y-86000000D02*
X87700000Y-86600000D01*
X87100000Y-90800000D02*
X84300000Y-90800000D01*
X87700000Y-90200000D02*
X87100000Y-90800000D01*
X88100000Y-87200000D02*
X88100000Y-89600000D01*
X87500000Y-88400000D02*
G75*
G02*
X83900000Y-88400000I-1800000J0D01*
G01*
X83900000Y-88400000D02*
G75*
G02*
X87500000Y-88400000I1800000J0D01*
G01*
%TO.C,SW12*%
X108100000Y-64400000D02*
X108100000Y-62000000D01*
X108500000Y-61400000D02*
X109100000Y-60800000D01*
X109100000Y-60800000D02*
X111900000Y-60800000D01*
X109100000Y-65600000D02*
X108500000Y-65000000D01*
X111900000Y-60800000D02*
X112500000Y-61400000D01*
X111900000Y-65600000D02*
X109100000Y-65600000D01*
X112500000Y-65000000D02*
X111900000Y-65600000D01*
X112900000Y-62000000D02*
X112900000Y-64400000D01*
X112300000Y-63200000D02*
G75*
G02*
X108700000Y-63200000I-1800000J0D01*
G01*
X108700000Y-63200000D02*
G75*
G02*
X112300000Y-63200000I1800000J0D01*
G01*
%TO.C,SW11*%
X157700000Y-64400000D02*
X157700000Y-62000000D01*
X158100000Y-61400000D02*
X158700000Y-60800000D01*
X158700000Y-60800000D02*
X161500000Y-60800000D01*
X158700000Y-65600000D02*
X158100000Y-65000000D01*
X161500000Y-60800000D02*
X162100000Y-61400000D01*
X161500000Y-65600000D02*
X158700000Y-65600000D01*
X162100000Y-65000000D02*
X161500000Y-65600000D01*
X162500000Y-62000000D02*
X162500000Y-64400000D01*
X161900000Y-63200000D02*
G75*
G02*
X158300000Y-63200000I-1800000J0D01*
G01*
X158300000Y-63200000D02*
G75*
G02*
X161900000Y-63200000I1800000J0D01*
G01*
%TO.C,SW10*%
X83300000Y-77000000D02*
X83300000Y-74600000D01*
X83700000Y-74000000D02*
X84300000Y-73400000D01*
X84300000Y-73400000D02*
X87100000Y-73400000D01*
X84300000Y-78200000D02*
X83700000Y-77600000D01*
X87100000Y-73400000D02*
X87700000Y-74000000D01*
X87100000Y-78200000D02*
X84300000Y-78200000D01*
X87700000Y-77600000D02*
X87100000Y-78200000D01*
X88100000Y-74600000D02*
X88100000Y-77000000D01*
X87500000Y-75800000D02*
G75*
G02*
X83900000Y-75800000I-1800000J0D01*
G01*
X83900000Y-75800000D02*
G75*
G02*
X87500000Y-75800000I1800000J0D01*
G01*
%TD*%
%LPC*%
D11*
%TO.C,SW28*%
X82700000Y-48750000D03*
X88700000Y-48750000D03*
X82700000Y-52450000D03*
X88700000Y-52450000D03*
%TD*%
%TO.C,SW25*%
X95100000Y-48750000D03*
X101100000Y-48750000D03*
X95100000Y-52450000D03*
X101100000Y-52450000D03*
%TD*%
%TO.C,SW22*%
X107500000Y-48750000D03*
X113500000Y-48750000D03*
X107500000Y-52450000D03*
X113500000Y-52450000D03*
%TD*%
%TO.C,SW19*%
X119900000Y-48750000D03*
X125900000Y-48750000D03*
X119900000Y-52450000D03*
X125900000Y-52450000D03*
%TD*%
%TO.C,SW1*%
X132300000Y-48750000D03*
X138300000Y-48750000D03*
X132300000Y-52450000D03*
X138300000Y-52450000D03*
%TD*%
%TO.C,SW14*%
X144700000Y-48750000D03*
X150700000Y-48750000D03*
X144700000Y-52450000D03*
X150700000Y-52450000D03*
%TD*%
%TO.C,SW3*%
X157100000Y-48750000D03*
X163100000Y-48750000D03*
X157100000Y-52450000D03*
X163100000Y-52450000D03*
%TD*%
%TO.C,SW4*%
X175500000Y-52450000D03*
X169500000Y-52450000D03*
X175500000Y-48750000D03*
X169500000Y-48750000D03*
%TD*%
%TO.C,SW2*%
X95100000Y-73950000D03*
X101100000Y-73950000D03*
X95100000Y-77650000D03*
X101100000Y-77650000D03*
%TD*%
%TO.C,SW32*%
X169500000Y-86550000D03*
X175500000Y-86550000D03*
X169500000Y-90250000D03*
X175500000Y-90250000D03*
%TD*%
%TO.C,SW31*%
X82700000Y-61350000D03*
X88700000Y-61350000D03*
X82700000Y-65050000D03*
X88700000Y-65050000D03*
%TD*%
%TO.C,SW30*%
X107500000Y-86550000D03*
X113500000Y-86550000D03*
X107500000Y-90250000D03*
X113500000Y-90250000D03*
%TD*%
%TO.C,SW29*%
X169500000Y-73950000D03*
X175500000Y-73950000D03*
X169500000Y-77650000D03*
X175500000Y-77650000D03*
%TD*%
%TO.C,SW27*%
X119900000Y-86550000D03*
X125900000Y-86550000D03*
X119900000Y-90250000D03*
X125900000Y-90250000D03*
%TD*%
%TO.C,SW26*%
X157100000Y-73950000D03*
X163100000Y-73950000D03*
X157100000Y-77650000D03*
X163100000Y-77650000D03*
%TD*%
%TO.C,SW24*%
X132300000Y-86550000D03*
X138300000Y-86550000D03*
X132300000Y-90250000D03*
X138300000Y-90250000D03*
%TD*%
%TO.C,SW23*%
X144700000Y-86550000D03*
X150700000Y-86550000D03*
X144700000Y-90250000D03*
X150700000Y-90250000D03*
%TD*%
%TO.C,SW21*%
X107500000Y-73950000D03*
X113500000Y-73950000D03*
X107500000Y-77650000D03*
X113500000Y-77650000D03*
%TD*%
%TO.C,SW9*%
X119900000Y-61350000D03*
X125900000Y-61350000D03*
X119900000Y-65050000D03*
X125900000Y-65050000D03*
%TD*%
%TO.C,SW8*%
X169500000Y-61350000D03*
X175500000Y-61350000D03*
X169500000Y-65050000D03*
X175500000Y-65050000D03*
%TD*%
%TO.C,SW7*%
X144700000Y-61350000D03*
X150700000Y-61350000D03*
X144700000Y-65050000D03*
X150700000Y-65050000D03*
%TD*%
%TO.C,SW6*%
X95100000Y-86550000D03*
X101100000Y-86550000D03*
X95100000Y-90250000D03*
X101100000Y-90250000D03*
%TD*%
%TO.C,SW5*%
X132300000Y-61350000D03*
X138300000Y-61350000D03*
X132300000Y-65050000D03*
X138300000Y-65050000D03*
%TD*%
%TO.C,SW20*%
X157100000Y-86550000D03*
X163100000Y-86550000D03*
X157100000Y-90250000D03*
X163100000Y-90250000D03*
%TD*%
%TO.C,SW18*%
X119900000Y-73950000D03*
X125900000Y-73950000D03*
X119900000Y-77650000D03*
X125900000Y-77650000D03*
%TD*%
%TO.C,SW17*%
X144700000Y-73950000D03*
X150700000Y-73950000D03*
X144700000Y-77650000D03*
X150700000Y-77650000D03*
%TD*%
%TO.C,SW16*%
X95100000Y-61350000D03*
X101100000Y-61350000D03*
X95100000Y-65050000D03*
X101100000Y-65050000D03*
%TD*%
%TO.C,SW15*%
X132300000Y-73950000D03*
X138300000Y-73950000D03*
X132300000Y-77650000D03*
X138300000Y-77650000D03*
%TD*%
%TO.C,SW13*%
X82700000Y-86550000D03*
X88700000Y-86550000D03*
X82700000Y-90250000D03*
X88700000Y-90250000D03*
%TD*%
%TO.C,SW12*%
X107500000Y-61350000D03*
X113500000Y-61350000D03*
X107500000Y-65050000D03*
X113500000Y-65050000D03*
%TD*%
%TO.C,SW11*%
X157100000Y-61350000D03*
X163100000Y-61350000D03*
X157100000Y-65050000D03*
X163100000Y-65050000D03*
%TD*%
%TO.C,SW10*%
X82700000Y-73950000D03*
X88700000Y-73950000D03*
X82700000Y-77650000D03*
X88700000Y-77650000D03*
%TD*%
%LPD*%
M02*
