%TF.GenerationSoftware,KiCad,Pcbnew,9.0.7*%
%TF.CreationDate,2026-01-10T19:40:49+02:00*%
%TF.ProjectId,mk-52 keyboard,6d6b2d35-3220-46b6-9579-626f6172642e,rev?*%
%TF.SameCoordinates,Original*%
%TF.FileFunction,Drillmap*%
%TF.FilePolarity,Positive*%
%FSLAX45Y45*%
G04 Gerber Fmt 4.5, Leading zero omitted, Abs format (unit mm)*
G04 Created by KiCad (PCBNEW 9.0.7) date 2026-01-10 19:40:49*
%MOMM*%
%LPD*%
G01*
G04 APERTURE LIST*
%ADD10C,0.050000*%
%ADD11C,0.200000*%
%ADD12C,0.100000*%
G04 APERTURE END LIST*
D10*
X12600000Y-9430000D02*
X12600000Y-9510000D01*
X13100000Y-9430000D02*
X13100000Y-9510000D01*
X8700000Y-9510000D02*
X12600000Y-9510000D01*
X12600000Y-4340000D02*
X12600000Y-4260000D01*
X13100000Y-4340000D02*
X13100000Y-4260000D01*
X8700000Y-9430000D02*
X8700000Y-9510000D01*
X8700000Y-4340000D02*
X8700000Y-4260000D01*
X8700000Y-4260000D02*
X12600000Y-4260000D01*
X13100000Y-9430000D02*
X12600000Y-9430000D01*
X12600000Y-4340000D02*
X13100000Y-4340000D01*
X8050000Y-4260000D02*
X8200000Y-4260000D01*
X18050000Y-9510000D02*
X18050000Y-4260000D01*
X17000000Y-4340000D02*
X17500000Y-4340000D01*
X17500000Y-9510000D02*
X18050000Y-9510000D01*
X13100000Y-4260000D02*
X17000000Y-4260000D01*
X13100000Y-9510000D02*
X17000000Y-9510000D01*
X8200000Y-4340000D02*
X8200000Y-4260000D01*
X8200000Y-9430000D02*
X8200000Y-9510000D01*
X8700000Y-9430000D02*
X8200000Y-9430000D01*
X17000000Y-4340000D02*
X17000000Y-4260000D01*
X17500000Y-9430000D02*
X17500000Y-9510000D01*
X17500000Y-9430000D02*
X17000000Y-9430000D01*
X17500000Y-4260000D02*
X18050000Y-4260000D01*
X17500000Y-4340000D02*
X17500000Y-4260000D01*
X8200000Y-4340000D02*
X8700000Y-4340000D01*
X8050000Y-4260000D02*
X8050000Y-9510000D01*
X8050000Y-9510000D02*
X8200000Y-9510000D01*
X17000000Y-9430000D02*
X17000000Y-9510000D01*
D11*
D12*
X9899090Y-6207210D02*
X9929090Y-6237210D01*
X9929090Y-6207210D02*
X9899090Y-6237210D01*
X10152960Y-5983650D02*
X10182960Y-6013650D01*
X10182960Y-5983650D02*
X10152960Y-6013650D01*
X10283880Y-8611830D02*
X10313880Y-8641830D01*
X10313880Y-8611830D02*
X10283880Y-8641830D01*
X10294940Y-6126970D02*
X10324940Y-6156970D01*
X10324940Y-6126970D02*
X10294940Y-6156970D01*
X10338280Y-8457770D02*
X10368280Y-8487770D01*
X10368280Y-8457770D02*
X10338280Y-8487770D01*
X10401740Y-8407510D02*
X10431740Y-8437510D01*
X10431740Y-8407510D02*
X10401740Y-8437510D01*
X10544570Y-7016370D02*
X10574570Y-7046370D01*
X10574570Y-7016370D02*
X10544570Y-7046370D01*
X10661160Y-6359670D02*
X10691160Y-6389670D01*
X10691160Y-6359670D02*
X10661160Y-6389670D01*
X10898590Y-4860000D02*
X10928590Y-4890000D01*
X10928590Y-4860000D02*
X10898590Y-4890000D01*
X10999890Y-4993960D02*
X11029890Y-5023960D01*
X11029890Y-4993960D02*
X10999890Y-5023960D01*
X11108510Y-7380000D02*
X11138510Y-7410000D01*
X11138510Y-7380000D02*
X11108510Y-7410000D01*
X13589930Y-9010000D02*
X13619930Y-9040000D01*
X13619930Y-9010000D02*
X13589930Y-9040000D01*
X14066560Y-7704300D02*
X14096560Y-7734300D01*
X14096560Y-7704300D02*
X14066560Y-7734300D01*
X14289420Y-6511940D02*
X14319420Y-6541940D01*
X14319420Y-6511940D02*
X14289420Y-6541940D01*
X14289420Y-7710460D02*
X14319420Y-7740460D01*
X14319420Y-7710460D02*
X14289420Y-7740460D01*
X14435180Y-8901980D02*
X14465180Y-8931980D01*
X14465180Y-8901980D02*
X14435180Y-8931980D01*
X14611810Y-5478040D02*
X14641810Y-5508040D01*
X14641810Y-5478040D02*
X14611810Y-5508040D01*
X14669960Y-8640000D02*
X14699960Y-8670000D01*
X14699960Y-8640000D02*
X14669960Y-8670000D01*
X14674210Y-5259690D02*
X14704210Y-5289690D01*
X14704210Y-5259690D02*
X14674210Y-5289690D01*
X14674210Y-6430810D02*
X14704210Y-6460810D01*
X14704210Y-6430810D02*
X14674210Y-6460810D01*
X14674210Y-8726720D02*
X14704210Y-8756720D01*
X14704210Y-8726720D02*
X14674210Y-8756720D01*
X14711560Y-7662610D02*
X14741560Y-7692610D01*
X14741560Y-7662610D02*
X14711560Y-7692610D01*
X14747180Y-5341300D02*
X14777180Y-5371300D01*
X14777180Y-5341300D02*
X14747180Y-5371300D01*
X14876570Y-7388560D02*
X14906570Y-7418560D01*
X14906570Y-7388560D02*
X14876570Y-7418560D01*
X14884130Y-4860000D02*
X14914130Y-4890000D01*
X14914130Y-4860000D02*
X14884130Y-4890000D01*
X14909170Y-5890720D02*
X14939170Y-5920720D01*
X14939170Y-5890720D02*
X14909170Y-5920720D01*
X15115680Y-8459400D02*
X15145680Y-8489400D01*
X15145680Y-8459400D02*
X15115680Y-8489400D01*
X15215000Y-5995760D02*
X15245000Y-6025760D01*
X15245000Y-5995760D02*
X15215000Y-6025760D01*
X15263280Y-4969610D02*
X15293280Y-4999610D01*
X15293280Y-4969610D02*
X15263280Y-4999610D01*
X15498820Y-7575230D02*
X15528820Y-7605230D01*
X15528820Y-7575230D02*
X15498820Y-7605230D01*
X15498840Y-8660870D02*
X15528840Y-8690870D01*
X15528840Y-8660870D02*
X15498840Y-8690870D01*
X15526780Y-6184010D02*
X15556780Y-6214010D01*
X15556780Y-6184010D02*
X15526780Y-6214010D01*
X15553010Y-6053610D02*
X15583010Y-6083610D01*
X15583010Y-6053610D02*
X15553010Y-6083610D01*
X15883630Y-4888870D02*
X15913630Y-4918870D01*
X15913630Y-4888870D02*
X15883630Y-4918870D01*
X15883630Y-5166650D02*
X15913630Y-5196650D01*
X15913630Y-5166650D02*
X15883630Y-5196650D01*
X16022700Y-7380000D02*
X16052700Y-7410000D01*
X16052700Y-7380000D02*
X16022700Y-7410000D01*
X16239120Y-5058210D02*
X16269120Y-5088210D01*
X16269120Y-5058210D02*
X16239120Y-5088210D01*
X16408080Y-7906930D02*
X16438080Y-7936930D01*
X16438080Y-7906930D02*
X16408080Y-7936930D01*
X16424240Y-5478040D02*
X16454240Y-5508040D01*
X16454240Y-5478040D02*
X16424240Y-5508040D01*
X16478460Y-4862040D02*
X16508460Y-4892040D01*
X16508460Y-4862040D02*
X16478460Y-4892040D01*
X16708260Y-6430810D02*
X16738260Y-6460810D01*
X16738260Y-6430810D02*
X16708260Y-6460810D01*
D11*
X8308277Y-9823984D02*
X8308277Y-9623984D01*
X8308277Y-9623984D02*
X8355896Y-9623984D01*
X8355896Y-9623984D02*
X8384467Y-9633508D01*
X8384467Y-9633508D02*
X8403515Y-9652555D01*
X8403515Y-9652555D02*
X8413039Y-9671603D01*
X8413039Y-9671603D02*
X8422563Y-9709698D01*
X8422563Y-9709698D02*
X8422563Y-9738270D01*
X8422563Y-9738270D02*
X8413039Y-9776365D01*
X8413039Y-9776365D02*
X8403515Y-9795412D01*
X8403515Y-9795412D02*
X8384467Y-9814460D01*
X8384467Y-9814460D02*
X8355896Y-9823984D01*
X8355896Y-9823984D02*
X8308277Y-9823984D01*
X8508277Y-9823984D02*
X8508277Y-9690650D01*
X8508277Y-9728746D02*
X8517801Y-9709698D01*
X8517801Y-9709698D02*
X8527324Y-9700174D01*
X8527324Y-9700174D02*
X8546372Y-9690650D01*
X8546372Y-9690650D02*
X8565420Y-9690650D01*
X8632086Y-9823984D02*
X8632086Y-9690650D01*
X8632086Y-9623984D02*
X8622563Y-9633508D01*
X8622563Y-9633508D02*
X8632086Y-9643031D01*
X8632086Y-9643031D02*
X8641610Y-9633508D01*
X8641610Y-9633508D02*
X8632086Y-9623984D01*
X8632086Y-9623984D02*
X8632086Y-9643031D01*
X8755896Y-9823984D02*
X8736848Y-9814460D01*
X8736848Y-9814460D02*
X8727324Y-9795412D01*
X8727324Y-9795412D02*
X8727324Y-9623984D01*
X8860658Y-9823984D02*
X8841610Y-9814460D01*
X8841610Y-9814460D02*
X8832086Y-9795412D01*
X8832086Y-9795412D02*
X8832086Y-9623984D01*
X9089229Y-9823984D02*
X9089229Y-9623984D01*
X9089229Y-9623984D02*
X9155896Y-9766841D01*
X9155896Y-9766841D02*
X9222563Y-9623984D01*
X9222563Y-9623984D02*
X9222563Y-9823984D01*
X9403515Y-9823984D02*
X9403515Y-9719222D01*
X9403515Y-9719222D02*
X9393991Y-9700174D01*
X9393991Y-9700174D02*
X9374944Y-9690650D01*
X9374944Y-9690650D02*
X9336848Y-9690650D01*
X9336848Y-9690650D02*
X9317801Y-9700174D01*
X9403515Y-9814460D02*
X9384467Y-9823984D01*
X9384467Y-9823984D02*
X9336848Y-9823984D01*
X9336848Y-9823984D02*
X9317801Y-9814460D01*
X9317801Y-9814460D02*
X9308277Y-9795412D01*
X9308277Y-9795412D02*
X9308277Y-9776365D01*
X9308277Y-9776365D02*
X9317801Y-9757317D01*
X9317801Y-9757317D02*
X9336848Y-9747793D01*
X9336848Y-9747793D02*
X9384467Y-9747793D01*
X9384467Y-9747793D02*
X9403515Y-9738270D01*
X9498753Y-9690650D02*
X9498753Y-9890650D01*
X9498753Y-9700174D02*
X9517801Y-9690650D01*
X9517801Y-9690650D02*
X9555896Y-9690650D01*
X9555896Y-9690650D02*
X9574944Y-9700174D01*
X9574944Y-9700174D02*
X9584467Y-9709698D01*
X9584467Y-9709698D02*
X9593991Y-9728746D01*
X9593991Y-9728746D02*
X9593991Y-9785889D01*
X9593991Y-9785889D02*
X9584467Y-9804936D01*
X9584467Y-9804936D02*
X9574944Y-9814460D01*
X9574944Y-9814460D02*
X9555896Y-9823984D01*
X9555896Y-9823984D02*
X9517801Y-9823984D01*
X9517801Y-9823984D02*
X9498753Y-9814460D01*
X9679705Y-9804936D02*
X9689229Y-9814460D01*
X9689229Y-9814460D02*
X9679705Y-9823984D01*
X9679705Y-9823984D02*
X9670182Y-9814460D01*
X9670182Y-9814460D02*
X9679705Y-9804936D01*
X9679705Y-9804936D02*
X9679705Y-9823984D01*
X9679705Y-9700174D02*
X9689229Y-9709698D01*
X9689229Y-9709698D02*
X9679705Y-9719222D01*
X9679705Y-9719222D02*
X9670182Y-9709698D01*
X9670182Y-9709698D02*
X9679705Y-9700174D01*
X9679705Y-9700174D02*
X9679705Y-9719222D01*
D12*
X8017500Y-10137500D02*
X8047500Y-10167500D01*
X8047500Y-10137500D02*
X8017500Y-10167500D01*
D11*
X8346372Y-10043984D02*
X8365420Y-10043984D01*
X8365420Y-10043984D02*
X8384467Y-10053508D01*
X8384467Y-10053508D02*
X8393991Y-10063031D01*
X8393991Y-10063031D02*
X8403515Y-10082079D01*
X8403515Y-10082079D02*
X8413039Y-10120174D01*
X8413039Y-10120174D02*
X8413039Y-10167793D01*
X8413039Y-10167793D02*
X8403515Y-10205889D01*
X8403515Y-10205889D02*
X8393991Y-10224936D01*
X8393991Y-10224936D02*
X8384467Y-10234460D01*
X8384467Y-10234460D02*
X8365420Y-10243984D01*
X8365420Y-10243984D02*
X8346372Y-10243984D01*
X8346372Y-10243984D02*
X8327324Y-10234460D01*
X8327324Y-10234460D02*
X8317801Y-10224936D01*
X8317801Y-10224936D02*
X8308277Y-10205889D01*
X8308277Y-10205889D02*
X8298753Y-10167793D01*
X8298753Y-10167793D02*
X8298753Y-10120174D01*
X8298753Y-10120174D02*
X8308277Y-10082079D01*
X8308277Y-10082079D02*
X8317801Y-10063031D01*
X8317801Y-10063031D02*
X8327324Y-10053508D01*
X8327324Y-10053508D02*
X8346372Y-10043984D01*
X8498753Y-10224936D02*
X8508277Y-10234460D01*
X8508277Y-10234460D02*
X8498753Y-10243984D01*
X8498753Y-10243984D02*
X8489229Y-10234460D01*
X8489229Y-10234460D02*
X8498753Y-10224936D01*
X8498753Y-10224936D02*
X8498753Y-10243984D01*
X8574944Y-10043984D02*
X8698753Y-10043984D01*
X8698753Y-10043984D02*
X8632086Y-10120174D01*
X8632086Y-10120174D02*
X8660658Y-10120174D01*
X8660658Y-10120174D02*
X8679705Y-10129698D01*
X8679705Y-10129698D02*
X8689229Y-10139222D01*
X8689229Y-10139222D02*
X8698753Y-10158270D01*
X8698753Y-10158270D02*
X8698753Y-10205889D01*
X8698753Y-10205889D02*
X8689229Y-10224936D01*
X8689229Y-10224936D02*
X8679705Y-10234460D01*
X8679705Y-10234460D02*
X8660658Y-10243984D01*
X8660658Y-10243984D02*
X8603515Y-10243984D01*
X8603515Y-10243984D02*
X8584467Y-10234460D01*
X8584467Y-10234460D02*
X8574944Y-10224936D01*
X8822563Y-10043984D02*
X8841610Y-10043984D01*
X8841610Y-10043984D02*
X8860658Y-10053508D01*
X8860658Y-10053508D02*
X8870182Y-10063031D01*
X8870182Y-10063031D02*
X8879705Y-10082079D01*
X8879705Y-10082079D02*
X8889229Y-10120174D01*
X8889229Y-10120174D02*
X8889229Y-10167793D01*
X8889229Y-10167793D02*
X8879705Y-10205889D01*
X8879705Y-10205889D02*
X8870182Y-10224936D01*
X8870182Y-10224936D02*
X8860658Y-10234460D01*
X8860658Y-10234460D02*
X8841610Y-10243984D01*
X8841610Y-10243984D02*
X8822563Y-10243984D01*
X8822563Y-10243984D02*
X8803515Y-10234460D01*
X8803515Y-10234460D02*
X8793991Y-10224936D01*
X8793991Y-10224936D02*
X8784467Y-10205889D01*
X8784467Y-10205889D02*
X8774944Y-10167793D01*
X8774944Y-10167793D02*
X8774944Y-10120174D01*
X8774944Y-10120174D02*
X8784467Y-10082079D01*
X8784467Y-10082079D02*
X8793991Y-10063031D01*
X8793991Y-10063031D02*
X8803515Y-10053508D01*
X8803515Y-10053508D02*
X8822563Y-10043984D01*
X9013039Y-10043984D02*
X9032086Y-10043984D01*
X9032086Y-10043984D02*
X9051134Y-10053508D01*
X9051134Y-10053508D02*
X9060658Y-10063031D01*
X9060658Y-10063031D02*
X9070182Y-10082079D01*
X9070182Y-10082079D02*
X9079705Y-10120174D01*
X9079705Y-10120174D02*
X9079705Y-10167793D01*
X9079705Y-10167793D02*
X9070182Y-10205889D01*
X9070182Y-10205889D02*
X9060658Y-10224936D01*
X9060658Y-10224936D02*
X9051134Y-10234460D01*
X9051134Y-10234460D02*
X9032086Y-10243984D01*
X9032086Y-10243984D02*
X9013039Y-10243984D01*
X9013039Y-10243984D02*
X8993991Y-10234460D01*
X8993991Y-10234460D02*
X8984467Y-10224936D01*
X8984467Y-10224936D02*
X8974944Y-10205889D01*
X8974944Y-10205889D02*
X8965420Y-10167793D01*
X8965420Y-10167793D02*
X8965420Y-10120174D01*
X8965420Y-10120174D02*
X8974944Y-10082079D01*
X8974944Y-10082079D02*
X8984467Y-10063031D01*
X8984467Y-10063031D02*
X8993991Y-10053508D01*
X8993991Y-10053508D02*
X9013039Y-10043984D01*
X9165420Y-10243984D02*
X9165420Y-10110650D01*
X9165420Y-10129698D02*
X9174944Y-10120174D01*
X9174944Y-10120174D02*
X9193991Y-10110650D01*
X9193991Y-10110650D02*
X9222563Y-10110650D01*
X9222563Y-10110650D02*
X9241610Y-10120174D01*
X9241610Y-10120174D02*
X9251134Y-10139222D01*
X9251134Y-10139222D02*
X9251134Y-10243984D01*
X9251134Y-10139222D02*
X9260658Y-10120174D01*
X9260658Y-10120174D02*
X9279705Y-10110650D01*
X9279705Y-10110650D02*
X9308277Y-10110650D01*
X9308277Y-10110650D02*
X9327325Y-10120174D01*
X9327325Y-10120174D02*
X9336848Y-10139222D01*
X9336848Y-10139222D02*
X9336848Y-10243984D01*
X9432086Y-10243984D02*
X9432086Y-10110650D01*
X9432086Y-10129698D02*
X9441610Y-10120174D01*
X9441610Y-10120174D02*
X9460658Y-10110650D01*
X9460658Y-10110650D02*
X9489229Y-10110650D01*
X9489229Y-10110650D02*
X9508277Y-10120174D01*
X9508277Y-10120174D02*
X9517801Y-10139222D01*
X9517801Y-10139222D02*
X9517801Y-10243984D01*
X9517801Y-10139222D02*
X9527325Y-10120174D01*
X9527325Y-10120174D02*
X9546372Y-10110650D01*
X9546372Y-10110650D02*
X9574944Y-10110650D01*
X9574944Y-10110650D02*
X9593991Y-10120174D01*
X9593991Y-10120174D02*
X9603515Y-10139222D01*
X9603515Y-10139222D02*
X9603515Y-10243984D01*
X9993991Y-10034460D02*
X9822563Y-10291603D01*
X10251134Y-10043984D02*
X10270182Y-10043984D01*
X10270182Y-10043984D02*
X10289229Y-10053508D01*
X10289229Y-10053508D02*
X10298753Y-10063031D01*
X10298753Y-10063031D02*
X10308277Y-10082079D01*
X10308277Y-10082079D02*
X10317801Y-10120174D01*
X10317801Y-10120174D02*
X10317801Y-10167793D01*
X10317801Y-10167793D02*
X10308277Y-10205889D01*
X10308277Y-10205889D02*
X10298753Y-10224936D01*
X10298753Y-10224936D02*
X10289229Y-10234460D01*
X10289229Y-10234460D02*
X10270182Y-10243984D01*
X10270182Y-10243984D02*
X10251134Y-10243984D01*
X10251134Y-10243984D02*
X10232087Y-10234460D01*
X10232087Y-10234460D02*
X10222563Y-10224936D01*
X10222563Y-10224936D02*
X10213039Y-10205889D01*
X10213039Y-10205889D02*
X10203515Y-10167793D01*
X10203515Y-10167793D02*
X10203515Y-10120174D01*
X10203515Y-10120174D02*
X10213039Y-10082079D01*
X10213039Y-10082079D02*
X10222563Y-10063031D01*
X10222563Y-10063031D02*
X10232087Y-10053508D01*
X10232087Y-10053508D02*
X10251134Y-10043984D01*
X10403515Y-10224936D02*
X10413039Y-10234460D01*
X10413039Y-10234460D02*
X10403515Y-10243984D01*
X10403515Y-10243984D02*
X10393991Y-10234460D01*
X10393991Y-10234460D02*
X10403515Y-10224936D01*
X10403515Y-10224936D02*
X10403515Y-10243984D01*
X10536848Y-10043984D02*
X10555896Y-10043984D01*
X10555896Y-10043984D02*
X10574944Y-10053508D01*
X10574944Y-10053508D02*
X10584468Y-10063031D01*
X10584468Y-10063031D02*
X10593991Y-10082079D01*
X10593991Y-10082079D02*
X10603515Y-10120174D01*
X10603515Y-10120174D02*
X10603515Y-10167793D01*
X10603515Y-10167793D02*
X10593991Y-10205889D01*
X10593991Y-10205889D02*
X10584468Y-10224936D01*
X10584468Y-10224936D02*
X10574944Y-10234460D01*
X10574944Y-10234460D02*
X10555896Y-10243984D01*
X10555896Y-10243984D02*
X10536848Y-10243984D01*
X10536848Y-10243984D02*
X10517801Y-10234460D01*
X10517801Y-10234460D02*
X10508277Y-10224936D01*
X10508277Y-10224936D02*
X10498753Y-10205889D01*
X10498753Y-10205889D02*
X10489229Y-10167793D01*
X10489229Y-10167793D02*
X10489229Y-10120174D01*
X10489229Y-10120174D02*
X10498753Y-10082079D01*
X10498753Y-10082079D02*
X10508277Y-10063031D01*
X10508277Y-10063031D02*
X10517801Y-10053508D01*
X10517801Y-10053508D02*
X10536848Y-10043984D01*
X10793991Y-10243984D02*
X10679706Y-10243984D01*
X10736848Y-10243984D02*
X10736848Y-10043984D01*
X10736848Y-10043984D02*
X10717801Y-10072555D01*
X10717801Y-10072555D02*
X10698753Y-10091603D01*
X10698753Y-10091603D02*
X10679706Y-10101127D01*
X10984468Y-10243984D02*
X10870182Y-10243984D01*
X10927325Y-10243984D02*
X10927325Y-10043984D01*
X10927325Y-10043984D02*
X10908277Y-10072555D01*
X10908277Y-10072555D02*
X10889229Y-10091603D01*
X10889229Y-10091603D02*
X10870182Y-10101127D01*
X11098753Y-10129698D02*
X11079706Y-10120174D01*
X11079706Y-10120174D02*
X11070182Y-10110650D01*
X11070182Y-10110650D02*
X11060658Y-10091603D01*
X11060658Y-10091603D02*
X11060658Y-10082079D01*
X11060658Y-10082079D02*
X11070182Y-10063031D01*
X11070182Y-10063031D02*
X11079706Y-10053508D01*
X11079706Y-10053508D02*
X11098753Y-10043984D01*
X11098753Y-10043984D02*
X11136849Y-10043984D01*
X11136849Y-10043984D02*
X11155896Y-10053508D01*
X11155896Y-10053508D02*
X11165420Y-10063031D01*
X11165420Y-10063031D02*
X11174944Y-10082079D01*
X11174944Y-10082079D02*
X11174944Y-10091603D01*
X11174944Y-10091603D02*
X11165420Y-10110650D01*
X11165420Y-10110650D02*
X11155896Y-10120174D01*
X11155896Y-10120174D02*
X11136849Y-10129698D01*
X11136849Y-10129698D02*
X11098753Y-10129698D01*
X11098753Y-10129698D02*
X11079706Y-10139222D01*
X11079706Y-10139222D02*
X11070182Y-10148746D01*
X11070182Y-10148746D02*
X11060658Y-10167793D01*
X11060658Y-10167793D02*
X11060658Y-10205889D01*
X11060658Y-10205889D02*
X11070182Y-10224936D01*
X11070182Y-10224936D02*
X11079706Y-10234460D01*
X11079706Y-10234460D02*
X11098753Y-10243984D01*
X11098753Y-10243984D02*
X11136849Y-10243984D01*
X11136849Y-10243984D02*
X11155896Y-10234460D01*
X11155896Y-10234460D02*
X11165420Y-10224936D01*
X11165420Y-10224936D02*
X11174944Y-10205889D01*
X11174944Y-10205889D02*
X11174944Y-10167793D01*
X11174944Y-10167793D02*
X11165420Y-10148746D01*
X11165420Y-10148746D02*
X11155896Y-10139222D01*
X11155896Y-10139222D02*
X11136849Y-10129698D01*
X11251134Y-10043984D02*
X11251134Y-10082079D01*
X11327325Y-10043984D02*
X11327325Y-10082079D01*
X11622563Y-10320174D02*
X11613039Y-10310650D01*
X11613039Y-10310650D02*
X11593991Y-10282079D01*
X11593991Y-10282079D02*
X11584468Y-10263031D01*
X11584468Y-10263031D02*
X11574944Y-10234460D01*
X11574944Y-10234460D02*
X11565420Y-10186841D01*
X11565420Y-10186841D02*
X11565420Y-10148746D01*
X11565420Y-10148746D02*
X11574944Y-10101127D01*
X11574944Y-10101127D02*
X11584468Y-10072555D01*
X11584468Y-10072555D02*
X11593991Y-10053508D01*
X11593991Y-10053508D02*
X11613039Y-10024936D01*
X11613039Y-10024936D02*
X11622563Y-10015412D01*
X11784468Y-10110650D02*
X11784468Y-10243984D01*
X11736848Y-10034460D02*
X11689229Y-10177317D01*
X11689229Y-10177317D02*
X11813039Y-10177317D01*
X11993991Y-10243984D02*
X11879706Y-10243984D01*
X11936848Y-10243984D02*
X11936848Y-10043984D01*
X11936848Y-10043984D02*
X11917801Y-10072555D01*
X11917801Y-10072555D02*
X11898753Y-10091603D01*
X11898753Y-10091603D02*
X11879706Y-10101127D01*
X12232087Y-10243984D02*
X12232087Y-10043984D01*
X12317801Y-10243984D02*
X12317801Y-10139222D01*
X12317801Y-10139222D02*
X12308277Y-10120174D01*
X12308277Y-10120174D02*
X12289230Y-10110650D01*
X12289230Y-10110650D02*
X12260658Y-10110650D01*
X12260658Y-10110650D02*
X12241610Y-10120174D01*
X12241610Y-10120174D02*
X12232087Y-10129698D01*
X12441610Y-10243984D02*
X12422563Y-10234460D01*
X12422563Y-10234460D02*
X12413039Y-10224936D01*
X12413039Y-10224936D02*
X12403515Y-10205889D01*
X12403515Y-10205889D02*
X12403515Y-10148746D01*
X12403515Y-10148746D02*
X12413039Y-10129698D01*
X12413039Y-10129698D02*
X12422563Y-10120174D01*
X12422563Y-10120174D02*
X12441610Y-10110650D01*
X12441610Y-10110650D02*
X12470182Y-10110650D01*
X12470182Y-10110650D02*
X12489230Y-10120174D01*
X12489230Y-10120174D02*
X12498753Y-10129698D01*
X12498753Y-10129698D02*
X12508277Y-10148746D01*
X12508277Y-10148746D02*
X12508277Y-10205889D01*
X12508277Y-10205889D02*
X12498753Y-10224936D01*
X12498753Y-10224936D02*
X12489230Y-10234460D01*
X12489230Y-10234460D02*
X12470182Y-10243984D01*
X12470182Y-10243984D02*
X12441610Y-10243984D01*
X12622563Y-10243984D02*
X12603515Y-10234460D01*
X12603515Y-10234460D02*
X12593991Y-10215412D01*
X12593991Y-10215412D02*
X12593991Y-10043984D01*
X12774944Y-10234460D02*
X12755896Y-10243984D01*
X12755896Y-10243984D02*
X12717801Y-10243984D01*
X12717801Y-10243984D02*
X12698753Y-10234460D01*
X12698753Y-10234460D02*
X12689230Y-10215412D01*
X12689230Y-10215412D02*
X12689230Y-10139222D01*
X12689230Y-10139222D02*
X12698753Y-10120174D01*
X12698753Y-10120174D02*
X12717801Y-10110650D01*
X12717801Y-10110650D02*
X12755896Y-10110650D01*
X12755896Y-10110650D02*
X12774944Y-10120174D01*
X12774944Y-10120174D02*
X12784468Y-10139222D01*
X12784468Y-10139222D02*
X12784468Y-10158270D01*
X12784468Y-10158270D02*
X12689230Y-10177317D01*
X12860658Y-10234460D02*
X12879706Y-10243984D01*
X12879706Y-10243984D02*
X12917801Y-10243984D01*
X12917801Y-10243984D02*
X12936849Y-10234460D01*
X12936849Y-10234460D02*
X12946372Y-10215412D01*
X12946372Y-10215412D02*
X12946372Y-10205889D01*
X12946372Y-10205889D02*
X12936849Y-10186841D01*
X12936849Y-10186841D02*
X12917801Y-10177317D01*
X12917801Y-10177317D02*
X12889230Y-10177317D01*
X12889230Y-10177317D02*
X12870182Y-10167793D01*
X12870182Y-10167793D02*
X12860658Y-10148746D01*
X12860658Y-10148746D02*
X12860658Y-10139222D01*
X12860658Y-10139222D02*
X12870182Y-10120174D01*
X12870182Y-10120174D02*
X12889230Y-10110650D01*
X12889230Y-10110650D02*
X12917801Y-10110650D01*
X12917801Y-10110650D02*
X12936849Y-10120174D01*
X13013039Y-10320174D02*
X13022563Y-10310650D01*
X13022563Y-10310650D02*
X13041611Y-10282079D01*
X13041611Y-10282079D02*
X13051134Y-10263031D01*
X13051134Y-10263031D02*
X13060658Y-10234460D01*
X13060658Y-10234460D02*
X13070182Y-10186841D01*
X13070182Y-10186841D02*
X13070182Y-10148746D01*
X13070182Y-10148746D02*
X13060658Y-10101127D01*
X13060658Y-10101127D02*
X13051134Y-10072555D01*
X13051134Y-10072555D02*
X13041611Y-10053508D01*
X13041611Y-10053508D02*
X13022563Y-10024936D01*
X13022563Y-10024936D02*
X13013039Y-10015412D01*
M02*
