%TF.GenerationSoftware,KiCad,Pcbnew,9.0.7*%
%TF.CreationDate,2026-01-10T19:40:59+02:00*%
%TF.ProjectId,mk-52 keyboard,6d6b2d35-3220-46b6-9579-626f6172642e,rev?*%
%TF.SameCoordinates,Original*%
%TF.FileFunction,Paste,Top*%
%TF.FilePolarity,Positive*%
%FSLAX46Y46*%
G04 Gerber Fmt 4.6, Leading zero omitted, Abs format (unit mm)*
G04 Created by KiCad (PCBNEW 9.0.7) date 2026-01-10 19:40:59*
%MOMM*%
%LPD*%
G01*
G04 APERTURE LIST*
G04 Aperture macros list*
%AMRoundRect*
0 Rectangle with rounded corners*
0 $1 Rounding radius*
0 $2 $3 $4 $5 $6 $7 $8 $9 X,Y pos of 4 corners*
0 Add a 4 corners polygon primitive as box body*
4,1,4,$2,$3,$4,$5,$6,$7,$8,$9,$2,$3,0*
0 Add four circle primitives for the rounded corners*
1,1,$1+$1,$2,$3*
1,1,$1+$1,$4,$5*
1,1,$1+$1,$6,$7*
1,1,$1+$1,$8,$9*
0 Add four rect primitives between the rounded corners*
20,1,$1+$1,$2,$3,$4,$5,0*
20,1,$1+$1,$4,$5,$6,$7,0*
20,1,$1+$1,$6,$7,$8,$9,0*
20,1,$1+$1,$8,$9,$2,$3,0*%
G04 Aperture macros list end*
%ADD10RoundRect,0.200000X-0.700000X-0.350000X0.700000X-0.350000X0.700000X0.350000X-0.700000X0.350000X0*%
G04 APERTURE END LIST*
D10*
%TO.C,SW28*%
X82700000Y-48750000D03*
X88700000Y-48750000D03*
X82700000Y-52450000D03*
X88700000Y-52450000D03*
%TD*%
%TO.C,SW25*%
X95100000Y-48750000D03*
X101100000Y-48750000D03*
X95100000Y-52450000D03*
X101100000Y-52450000D03*
%TD*%
%TO.C,SW22*%
X107500000Y-48750000D03*
X113500000Y-48750000D03*
X107500000Y-52450000D03*
X113500000Y-52450000D03*
%TD*%
%TO.C,SW19*%
X119900000Y-48750000D03*
X125900000Y-48750000D03*
X119900000Y-52450000D03*
X125900000Y-52450000D03*
%TD*%
%TO.C,SW1*%
X132300000Y-48750000D03*
X138300000Y-48750000D03*
X132300000Y-52450000D03*
X138300000Y-52450000D03*
%TD*%
%TO.C,SW14*%
X144700000Y-48750000D03*
X150700000Y-48750000D03*
X144700000Y-52450000D03*
X150700000Y-52450000D03*
%TD*%
%TO.C,SW3*%
X157100000Y-48750000D03*
X163100000Y-48750000D03*
X157100000Y-52450000D03*
X163100000Y-52450000D03*
%TD*%
%TO.C,SW4*%
X175500000Y-52450000D03*
X169500000Y-52450000D03*
X175500000Y-48750000D03*
X169500000Y-48750000D03*
%TD*%
%TO.C,SW2*%
X95100000Y-73950000D03*
X101100000Y-73950000D03*
X95100000Y-77650000D03*
X101100000Y-77650000D03*
%TD*%
%TO.C,SW32*%
X169500000Y-86550000D03*
X175500000Y-86550000D03*
X169500000Y-90250000D03*
X175500000Y-90250000D03*
%TD*%
%TO.C,SW31*%
X82700000Y-61350000D03*
X88700000Y-61350000D03*
X82700000Y-65050000D03*
X88700000Y-65050000D03*
%TD*%
%TO.C,SW30*%
X107500000Y-86550000D03*
X113500000Y-86550000D03*
X107500000Y-90250000D03*
X113500000Y-90250000D03*
%TD*%
%TO.C,SW29*%
X169500000Y-73950000D03*
X175500000Y-73950000D03*
X169500000Y-77650000D03*
X175500000Y-77650000D03*
%TD*%
%TO.C,SW27*%
X119900000Y-86550000D03*
X125900000Y-86550000D03*
X119900000Y-90250000D03*
X125900000Y-90250000D03*
%TD*%
%TO.C,SW26*%
X157100000Y-73950000D03*
X163100000Y-73950000D03*
X157100000Y-77650000D03*
X163100000Y-77650000D03*
%TD*%
%TO.C,SW24*%
X132300000Y-86550000D03*
X138300000Y-86550000D03*
X132300000Y-90250000D03*
X138300000Y-90250000D03*
%TD*%
%TO.C,SW23*%
X144700000Y-86550000D03*
X150700000Y-86550000D03*
X144700000Y-90250000D03*
X150700000Y-90250000D03*
%TD*%
%TO.C,SW21*%
X107500000Y-73950000D03*
X113500000Y-73950000D03*
X107500000Y-77650000D03*
X113500000Y-77650000D03*
%TD*%
%TO.C,SW9*%
X119900000Y-61350000D03*
X125900000Y-61350000D03*
X119900000Y-65050000D03*
X125900000Y-65050000D03*
%TD*%
%TO.C,SW8*%
X169500000Y-61350000D03*
X175500000Y-61350000D03*
X169500000Y-65050000D03*
X175500000Y-65050000D03*
%TD*%
%TO.C,SW7*%
X144700000Y-61350000D03*
X150700000Y-61350000D03*
X144700000Y-65050000D03*
X150700000Y-65050000D03*
%TD*%
%TO.C,SW6*%
X95100000Y-86550000D03*
X101100000Y-86550000D03*
X95100000Y-90250000D03*
X101100000Y-90250000D03*
%TD*%
%TO.C,SW5*%
X132300000Y-61350000D03*
X138300000Y-61350000D03*
X132300000Y-65050000D03*
X138300000Y-65050000D03*
%TD*%
%TO.C,SW20*%
X157100000Y-86550000D03*
X163100000Y-86550000D03*
X157100000Y-90250000D03*
X163100000Y-90250000D03*
%TD*%
%TO.C,SW18*%
X119900000Y-73950000D03*
X125900000Y-73950000D03*
X119900000Y-77650000D03*
X125900000Y-77650000D03*
%TD*%
%TO.C,SW17*%
X144700000Y-73950000D03*
X150700000Y-73950000D03*
X144700000Y-77650000D03*
X150700000Y-77650000D03*
%TD*%
%TO.C,SW16*%
X95100000Y-61350000D03*
X101100000Y-61350000D03*
X95100000Y-65050000D03*
X101100000Y-65050000D03*
%TD*%
%TO.C,SW15*%
X132300000Y-73950000D03*
X138300000Y-73950000D03*
X132300000Y-77650000D03*
X138300000Y-77650000D03*
%TD*%
%TO.C,SW13*%
X82700000Y-86550000D03*
X88700000Y-86550000D03*
X82700000Y-90250000D03*
X88700000Y-90250000D03*
%TD*%
%TO.C,SW12*%
X107500000Y-61350000D03*
X113500000Y-61350000D03*
X107500000Y-65050000D03*
X113500000Y-65050000D03*
%TD*%
%TO.C,SW11*%
X157100000Y-61350000D03*
X163100000Y-61350000D03*
X157100000Y-65050000D03*
X163100000Y-65050000D03*
%TD*%
%TO.C,SW10*%
X82700000Y-73950000D03*
X88700000Y-73950000D03*
X82700000Y-77650000D03*
X88700000Y-77650000D03*
%TD*%
M02*
