M48
; DRILL file {KiCad 9.0.7} date 2026-01-10T19:40:49+0200
; FORMAT={-:-/ absolute / metric / decimal}
; #@! TF.CreationDate,2026-01-10T19:40:49+02:00
; #@! TF.GenerationSoftware,Kicad,Pcbnew,9.0.7
; #@! TF.FileFunction,Plated,1,2,PTH
FMAT,2
METRIC
; #@! TA.AperFunction,Plated,PTH,ViaDrill
T1C0.300
%
G90
G05
T1
X99.141Y-62.222
X101.68Y-59.986
X102.989Y-86.268
X103.099Y-61.42
X103.533Y-84.728
X104.167Y-84.225
X105.596Y-70.314
X106.762Y-63.747
X109.136Y-48.75
X110.149Y-50.09
X111.235Y-73.95
X136.049Y-90.25
X140.816Y-77.193
X143.044Y-65.269
X143.044Y-77.255
X144.502Y-89.17
X146.268Y-54.93
X146.85Y-86.55
X146.892Y-52.747
X146.892Y-64.458
X146.892Y-87.417
X147.266Y-76.776
X147.622Y-53.563
X148.916Y-74.036
X148.991Y-48.75
X149.242Y-59.057
X151.307Y-84.744
X152.3Y-60.108
X152.783Y-49.846
X155.138Y-75.902
X155.138Y-86.759
X155.418Y-61.99
X155.68Y-60.686
X158.986Y-49.039
X158.986Y-51.816
X160.377Y-73.95
X162.541Y-50.732
X164.231Y-79.219
X164.392Y-54.93
X164.935Y-48.77
X167.233Y-64.458
M30
