%TF.GenerationSoftware,KiCad,Pcbnew,9.0.7*%
%TF.CreationDate,2026-01-10T19:40:59+02:00*%
%TF.ProjectId,mk-52 keyboard,6d6b2d35-3220-46b6-9579-626f6172642e,rev?*%
%TF.SameCoordinates,Original*%
%TF.FileFunction,Copper,L1,Top*%
%TF.FilePolarity,Positive*%
%FSLAX46Y46*%
G04 Gerber Fmt 4.6, Leading zero omitted, Abs format (unit mm)*
G04 Created by KiCad (PCBNEW 9.0.7) date 2026-01-10 19:40:59*
%MOMM*%
%LPD*%
G01*
G04 APERTURE LIST*
G04 Aperture macros list*
%AMRoundRect*
0 Rectangle with rounded corners*
0 $1 Rounding radius*
0 $2 $3 $4 $5 $6 $7 $8 $9 X,Y pos of 4 corners*
0 Add a 4 corners polygon primitive as box body*
4,1,4,$2,$3,$4,$5,$6,$7,$8,$9,$2,$3,0*
0 Add four circle primitives for the rounded corners*
1,1,$1+$1,$2,$3*
1,1,$1+$1,$4,$5*
1,1,$1+$1,$6,$7*
1,1,$1+$1,$8,$9*
0 Add four rect primitives between the rounded corners*
20,1,$1+$1,$2,$3,$4,$5,0*
20,1,$1+$1,$4,$5,$6,$7,0*
20,1,$1+$1,$6,$7,$8,$9,0*
20,1,$1+$1,$8,$9,$2,$3,0*%
G04 Aperture macros list end*
%TA.AperFunction,SMDPad,CuDef*%
%ADD10RoundRect,0.200000X-0.700000X-0.350000X0.700000X-0.350000X0.700000X0.350000X-0.700000X0.350000X0*%
%TD*%
%TA.AperFunction,ViaPad*%
%ADD11C,0.600000*%
%TD*%
%TA.AperFunction,Conductor*%
%ADD12C,0.200000*%
%TD*%
G04 APERTURE END LIST*
D10*
%TO.P,SW28,1,1*%
%TO.N,Net-(J1-Pin_2)*%
X82700000Y-48750000D03*
X88700000Y-48750000D03*
%TO.P,SW28,2,2*%
%TO.N,Net-(J1-Pin_13)*%
X82700000Y-52450000D03*
X88700000Y-52450000D03*
%TD*%
%TO.P,SW25,1,1*%
%TO.N,Net-(J1-Pin_3)*%
X95100000Y-48750000D03*
X101100000Y-48750000D03*
%TO.P,SW25,2,2*%
%TO.N,Net-(J1-Pin_13)*%
X95100000Y-52450000D03*
X101100000Y-52450000D03*
%TD*%
%TO.P,SW22,1,1*%
%TO.N,Net-(J1-Pin_8)*%
X107500000Y-48750000D03*
X113500000Y-48750000D03*
%TO.P,SW22,2,2*%
%TO.N,Net-(J1-Pin_13)*%
X107500000Y-52450000D03*
X113500000Y-52450000D03*
%TD*%
%TO.P,SW19,1,1*%
%TO.N,Net-(J1-Pin_7)*%
X119900000Y-48750000D03*
X125900000Y-48750000D03*
%TO.P,SW19,2,2*%
%TO.N,Net-(J1-Pin_13)*%
X119900000Y-52450000D03*
X125900000Y-52450000D03*
%TD*%
%TO.P,SW1,1,1*%
%TO.N,Net-(J1-Pin_4)*%
X132300000Y-48750000D03*
X138300000Y-48750000D03*
%TO.P,SW1,2,2*%
%TO.N,Net-(J1-Pin_12)*%
X132300000Y-52450000D03*
X138300000Y-52450000D03*
%TD*%
%TO.P,SW14,1,1*%
%TO.N,Net-(J1-Pin_11)*%
X144700000Y-48750000D03*
X150700000Y-48750000D03*
%TO.P,SW14,2,2*%
%TO.N,Net-(J1-Pin_14)*%
X144700000Y-52450000D03*
X150700000Y-52450000D03*
%TD*%
%TO.P,SW3,1,1*%
%TO.N,Net-(J1-Pin_4)*%
X157100000Y-48750000D03*
X163100000Y-48750000D03*
%TO.P,SW3,2,2*%
%TO.N,Net-(J1-Pin_14)*%
X157100000Y-52450000D03*
X163100000Y-52450000D03*
%TD*%
%TO.P,SW4,2,2*%
%TO.N,Net-(J1-Pin_1)*%
X175500000Y-52450000D03*
X169500000Y-52450000D03*
%TO.P,SW4,1,1*%
%TO.N,Net-(J1-Pin_6)*%
X175500000Y-48750000D03*
X169500000Y-48750000D03*
%TD*%
%TO.P,SW2,1,1*%
%TO.N,Net-(J1-Pin_4)*%
X95100000Y-73950000D03*
X101100000Y-73950000D03*
%TO.P,SW2,2,2*%
%TO.N,Net-(J1-Pin_13)*%
X95100000Y-77650000D03*
X101100000Y-77650000D03*
%TD*%
%TO.P,SW32,1,1*%
%TO.N,Net-(J1-Pin_10)*%
X169500000Y-86550000D03*
X175500000Y-86550000D03*
%TO.P,SW32,2,2*%
%TO.N,Net-(J1-Pin_14)*%
X169500000Y-90250000D03*
X175500000Y-90250000D03*
%TD*%
%TO.P,SW31,1,1*%
%TO.N,Net-(J1-Pin_10)*%
X82700000Y-61350000D03*
X88700000Y-61350000D03*
%TO.P,SW31,2,2*%
%TO.N,Net-(J1-Pin_13)*%
X82700000Y-65050000D03*
X88700000Y-65050000D03*
%TD*%
%TO.P,SW30,1,1*%
%TO.N,Net-(J1-Pin_10)*%
X107500000Y-86550000D03*
X113500000Y-86550000D03*
%TO.P,SW30,2,2*%
%TO.N,Net-(J1-Pin_12)*%
X107500000Y-90250000D03*
X113500000Y-90250000D03*
%TD*%
%TO.P,SW29,1,1*%
%TO.N,Net-(J1-Pin_2)*%
X169500000Y-73950000D03*
X175500000Y-73950000D03*
%TO.P,SW29,2,2*%
%TO.N,Net-(J1-Pin_14)*%
X169500000Y-77650000D03*
X175500000Y-77650000D03*
%TD*%
%TO.P,SW27,1,1*%
%TO.N,Net-(J1-Pin_2)*%
X119900000Y-86550000D03*
X125900000Y-86550000D03*
%TO.P,SW27,2,2*%
%TO.N,Net-(J1-Pin_12)*%
X119900000Y-90250000D03*
X125900000Y-90250000D03*
%TD*%
%TO.P,SW26,1,1*%
%TO.N,Net-(J1-Pin_3)*%
X157100000Y-73950000D03*
X163100000Y-73950000D03*
%TO.P,SW26,2,2*%
%TO.N,Net-(J1-Pin_14)*%
X157100000Y-77650000D03*
X163100000Y-77650000D03*
%TD*%
%TO.P,SW24,1,1*%
%TO.N,Net-(J1-Pin_3)*%
X132300000Y-86550000D03*
X138300000Y-86550000D03*
%TO.P,SW24,2,2*%
%TO.N,Net-(J1-Pin_12)*%
X132300000Y-90250000D03*
X138300000Y-90250000D03*
%TD*%
%TO.P,SW23,1,1*%
%TO.N,Net-(J1-Pin_8)*%
X144700000Y-86550000D03*
X150700000Y-86550000D03*
%TO.P,SW23,2,2*%
%TO.N,Net-(J1-Pin_14)*%
X144700000Y-90250000D03*
X150700000Y-90250000D03*
%TD*%
%TO.P,SW21,1,1*%
%TO.N,Net-(J1-Pin_8)*%
X107500000Y-73950000D03*
X113500000Y-73950000D03*
%TO.P,SW21,2,2*%
%TO.N,Net-(J1-Pin_12)*%
X107500000Y-77650000D03*
X113500000Y-77650000D03*
%TD*%
%TO.P,SW9,1,1*%
%TO.N,Net-(J1-Pin_5)*%
X119900000Y-61350000D03*
X125900000Y-61350000D03*
%TO.P,SW9,2,2*%
%TO.N,Net-(J1-Pin_12)*%
X119900000Y-65050000D03*
X125900000Y-65050000D03*
%TD*%
%TO.P,SW8,1,1*%
%TO.N,Net-(J1-Pin_5)*%
X169500000Y-61350000D03*
X175500000Y-61350000D03*
%TO.P,SW8,2,2*%
%TO.N,Net-(J1-Pin_1)*%
X169500000Y-65050000D03*
X175500000Y-65050000D03*
%TD*%
%TO.P,SW7,1,1*%
%TO.N,Net-(J1-Pin_6)*%
X144700000Y-61350000D03*
X150700000Y-61350000D03*
%TO.P,SW7,2,2*%
%TO.N,Net-(J1-Pin_14)*%
X144700000Y-65050000D03*
X150700000Y-65050000D03*
%TD*%
%TO.P,SW6,1,1*%
%TO.N,Net-(J1-Pin_6)*%
X95100000Y-86550000D03*
X101100000Y-86550000D03*
%TO.P,SW6,2,2*%
%TO.N,Net-(J1-Pin_13)*%
X95100000Y-90250000D03*
X101100000Y-90250000D03*
%TD*%
%TO.P,SW5,1,1*%
%TO.N,Net-(J1-Pin_6)*%
X132300000Y-61350000D03*
X138300000Y-61350000D03*
%TO.P,SW5,2,2*%
%TO.N,Net-(J1-Pin_12)*%
X132300000Y-65050000D03*
X138300000Y-65050000D03*
%TD*%
%TO.P,SW20,1,1*%
%TO.N,Net-(J1-Pin_7)*%
X157100000Y-86550000D03*
X163100000Y-86550000D03*
%TO.P,SW20,2,2*%
%TO.N,Net-(J1-Pin_14)*%
X157100000Y-90250000D03*
X163100000Y-90250000D03*
%TD*%
%TO.P,SW18,1,1*%
%TO.N,Net-(J1-Pin_7)*%
X119900000Y-73950000D03*
X125900000Y-73950000D03*
%TO.P,SW18,2,2*%
%TO.N,Net-(J1-Pin_12)*%
X119900000Y-77650000D03*
X125900000Y-77650000D03*
%TD*%
%TO.P,SW17,1,1*%
%TO.N,Net-(J1-Pin_9)*%
X144700000Y-73950000D03*
X150700000Y-73950000D03*
%TO.P,SW17,2,2*%
%TO.N,Net-(J1-Pin_14)*%
X144700000Y-77650000D03*
X150700000Y-77650000D03*
%TD*%
%TO.P,SW16,1,1*%
%TO.N,Net-(J1-Pin_9)*%
X95100000Y-61350000D03*
X101100000Y-61350000D03*
%TO.P,SW16,2,2*%
%TO.N,Net-(J1-Pin_13)*%
X95100000Y-65050000D03*
X101100000Y-65050000D03*
%TD*%
%TO.P,SW15,1,1*%
%TO.N,Net-(J1-Pin_9)*%
X132300000Y-73950000D03*
X138300000Y-73950000D03*
%TO.P,SW15,2,2*%
%TO.N,Net-(J1-Pin_12)*%
X132300000Y-77650000D03*
X138300000Y-77650000D03*
%TD*%
%TO.P,SW13,1,1*%
%TO.N,Net-(J1-Pin_11)*%
X82700000Y-86550000D03*
X88700000Y-86550000D03*
%TO.P,SW13,2,2*%
%TO.N,Net-(J1-Pin_13)*%
X82700000Y-90250000D03*
X88700000Y-90250000D03*
%TD*%
%TO.P,SW12,1,1*%
%TO.N,Net-(J1-Pin_11)*%
X107500000Y-61350000D03*
X113500000Y-61350000D03*
%TO.P,SW12,2,2*%
%TO.N,Net-(J1-Pin_12)*%
X107500000Y-65050000D03*
X113500000Y-65050000D03*
%TD*%
%TO.P,SW11,1,1*%
%TO.N,Net-(J1-Pin_5)*%
X157100000Y-61350000D03*
X163100000Y-61350000D03*
%TO.P,SW11,2,2*%
%TO.N,Net-(J1-Pin_14)*%
X157100000Y-65050000D03*
X163100000Y-65050000D03*
%TD*%
%TO.P,SW10,1,1*%
%TO.N,Net-(J1-Pin_5)*%
X82700000Y-73950000D03*
X88700000Y-73950000D03*
%TO.P,SW10,2,2*%
%TO.N,Net-(J1-Pin_13)*%
X82700000Y-77650000D03*
X88700000Y-77650000D03*
%TD*%
D11*
%TO.N,Net-(J1-Pin_13)*%
X146268100Y-54930400D03*
%TO.N,Net-(J1-Pin_12)*%
X147621800Y-53563000D03*
X143044200Y-65269400D03*
X140815600Y-77193000D03*
X136049300Y-90250000D03*
%TO.N,Net-(J1-Pin_6)*%
X104167400Y-84225100D03*
X106761600Y-63746700D03*
X155417800Y-61990100D03*
X164934600Y-48770400D03*
%TO.N,Net-(J1-Pin_14)*%
X146892100Y-52746900D03*
X146892100Y-64458100D03*
X143044200Y-77254600D03*
X144501800Y-89169800D03*
%TO.N,Net-(J1-Pin_11)*%
X148991300Y-48750000D03*
X103532800Y-84727700D03*
X103099400Y-61419700D03*
X101679600Y-59986500D03*
X149241700Y-59057200D03*
%TO.N,Net-(J1-Pin_5)*%
X155680100Y-60686100D03*
%TO.N,Net-(J1-Pin_4)*%
X105595700Y-70313700D03*
X110148900Y-50089600D03*
X158986300Y-51816500D03*
%TO.N,Net-(J1-Pin_8)*%
X146849600Y-86550000D03*
X147265600Y-76776100D03*
X109135900Y-48750000D03*
X111235100Y-73950000D03*
%TO.N,Net-(J1-Pin_1)*%
X164392400Y-54930400D03*
X167232600Y-64458100D03*
%TO.N,Net-(J1-Pin_3)*%
X160377000Y-73950000D03*
X151306800Y-84744000D03*
X158986300Y-49038700D03*
%TO.N,Net-(J1-Pin_2)*%
X164230800Y-79219300D03*
X162541200Y-50732100D03*
%TO.N,Net-(J1-Pin_7)*%
X155138400Y-86758700D03*
X155138200Y-75902300D03*
X152782800Y-49846100D03*
%TO.N,Net-(J1-Pin_9)*%
X148915700Y-74035600D03*
X152300000Y-60107600D03*
%TO.N,Net-(J1-Pin_10)*%
X99140900Y-62222100D03*
X102988800Y-86268300D03*
X146892100Y-87417200D03*
%TD*%
D12*
%TO.N,Net-(J1-Pin_13)*%
X82700000Y-52450000D02*
X88700000Y-52450000D01*
X107500000Y-52450000D02*
X113500000Y-52450000D01*
X128380400Y-54930400D02*
X125900000Y-52450000D01*
X146268100Y-54930400D02*
X128380400Y-54930400D01*
X88700000Y-77650000D02*
X82700000Y-77650000D01*
X95100000Y-77650000D02*
X101100000Y-77650000D01*
X82700000Y-65050000D02*
X88700000Y-65050000D01*
X119900000Y-52450000D02*
X113500000Y-52450000D01*
X125900000Y-52450000D02*
X119900000Y-52450000D01*
X101100000Y-90250000D02*
X95100000Y-90250000D01*
X107500000Y-52450000D02*
X101100000Y-52450000D01*
X101100000Y-52450000D02*
X95100000Y-52450000D01*
X95100000Y-52450000D02*
X88700000Y-52450000D01*
X82700000Y-90250000D02*
X88700000Y-90250000D01*
X88700000Y-90250000D02*
X95100000Y-90250000D01*
X81497500Y-78852500D02*
X82700000Y-77650000D01*
X81497500Y-89047500D02*
X81497500Y-78852500D01*
X82700000Y-90250000D02*
X81497500Y-89047500D01*
X96015500Y-65050000D02*
X88700000Y-65050000D01*
X95100000Y-65050000D02*
X96015500Y-65050000D01*
X96015500Y-65050000D02*
X101100000Y-65050000D01*
X81497500Y-76447500D02*
X82700000Y-77650000D01*
X81497500Y-66252500D02*
X81497500Y-76447500D01*
X82700000Y-65050000D02*
X81497500Y-66252500D01*
X81438300Y-63788300D02*
X82700000Y-65050000D01*
X81438300Y-53711700D02*
X81438300Y-63788300D01*
X82700000Y-52450000D02*
X81438300Y-53711700D01*
X88700000Y-77650000D02*
X95100000Y-77650000D01*
%TO.N,Net-(J1-Pin_12)*%
X132300000Y-65050000D02*
X138300000Y-65050000D01*
X107500000Y-90250000D02*
X113500000Y-90250000D01*
X107500000Y-77650000D02*
X113500000Y-77650000D01*
X125900000Y-90250000D02*
X119900000Y-90250000D01*
X132300000Y-52450000D02*
X138300000Y-52450000D01*
X139413000Y-53563000D02*
X147621800Y-53563000D01*
X138300000Y-52450000D02*
X139413000Y-53563000D01*
X119900000Y-65050000D02*
X125900000Y-65050000D01*
X113500000Y-65050000D02*
X107500000Y-65050000D01*
X132300000Y-65050000D02*
X125900000Y-65050000D01*
X138300000Y-77650000D02*
X132300000Y-77650000D01*
X132300000Y-77650000D02*
X125900000Y-77650000D01*
X138519400Y-65269400D02*
X138300000Y-65050000D01*
X143044200Y-65269400D02*
X138519400Y-65269400D01*
X119900000Y-65050000D02*
X113500000Y-65050000D01*
X120827700Y-77650000D02*
X113500000Y-77650000D01*
X125900000Y-77650000D02*
X120827700Y-77650000D01*
X120827700Y-77650000D02*
X119900000Y-77650000D01*
X113500000Y-90250000D02*
X119900000Y-90250000D01*
X132300000Y-90250000D02*
X125900000Y-90250000D01*
X138757000Y-77193000D02*
X138300000Y-77650000D01*
X140815600Y-77193000D02*
X138757000Y-77193000D01*
X132300000Y-90250000D02*
X136049300Y-90250000D01*
X138300000Y-90250000D02*
X136049300Y-90250000D01*
%TO.N,Net-(J1-Pin_6)*%
X132300000Y-61350000D02*
X138300000Y-61350000D01*
X175500000Y-48750000D02*
X169500000Y-48750000D01*
X129903300Y-63746700D02*
X132300000Y-61350000D01*
X106761600Y-63746700D02*
X129903300Y-63746700D01*
X101100000Y-86550000D02*
X95100000Y-86550000D01*
X104167400Y-84944200D02*
X104167400Y-84225100D01*
X103755200Y-85356400D02*
X104167400Y-84944200D01*
X102293600Y-85356400D02*
X103755200Y-85356400D01*
X101100000Y-86550000D02*
X102293600Y-85356400D01*
X144700000Y-61350000D02*
X138300000Y-61350000D01*
X144700000Y-61350000D02*
X150700000Y-61350000D01*
X154777700Y-61350000D02*
X155417800Y-61990100D01*
X150700000Y-61350000D02*
X154777700Y-61350000D01*
X169479600Y-48770400D02*
X169500000Y-48750000D01*
X164934600Y-48770400D02*
X169479600Y-48770400D01*
%TO.N,Net-(J1-Pin_14)*%
X144996900Y-52746900D02*
X144700000Y-52450000D01*
X146892100Y-52746900D02*
X144996900Y-52746900D01*
X163100000Y-52450000D02*
X157100000Y-52450000D01*
X163100000Y-77650000D02*
X157100000Y-77650000D01*
X175500000Y-90250000D02*
X169500000Y-90250000D01*
X157100000Y-90250000D02*
X163100000Y-90250000D01*
X147189000Y-52450000D02*
X150700000Y-52450000D01*
X146892100Y-52746900D02*
X147189000Y-52450000D01*
X157100000Y-65050000D02*
X163100000Y-65050000D01*
X157100000Y-52450000D02*
X150700000Y-52450000D01*
X175500000Y-77650000D02*
X169500000Y-77650000D01*
X169500000Y-77650000D02*
X163100000Y-77650000D01*
X145291900Y-64458100D02*
X144700000Y-65050000D01*
X146892100Y-64458100D02*
X145291900Y-64458100D01*
X150700000Y-77650000D02*
X157100000Y-77650000D01*
X157100000Y-90250000D02*
X150700000Y-90250000D01*
X150700000Y-77650000D02*
X144700000Y-77650000D01*
X143439600Y-77650000D02*
X143044200Y-77254600D01*
X144700000Y-77650000D02*
X143439600Y-77650000D01*
X169500000Y-90250000D02*
X163100000Y-90250000D01*
X144700000Y-90250000D02*
X150700000Y-90250000D01*
X144700000Y-89368000D02*
X144501800Y-89169800D01*
X144700000Y-90250000D02*
X144700000Y-89368000D01*
X144700000Y-65050000D02*
X150700000Y-65050000D01*
X150700000Y-65050000D02*
X157100000Y-65050000D01*
%TO.N,Net-(J1-Pin_11)*%
X107500000Y-61350000D02*
X113500000Y-61350000D01*
X150700000Y-48750000D02*
X148991300Y-48750000D01*
X148991300Y-48750000D02*
X144700000Y-48750000D01*
X82700000Y-86550000D02*
X88700000Y-86550000D01*
X90522300Y-84727700D02*
X103532800Y-84727700D01*
X88700000Y-86550000D02*
X90522300Y-84727700D01*
X107430300Y-61419700D02*
X107500000Y-61350000D01*
X103099400Y-61419700D02*
X107430300Y-61419700D01*
X102608900Y-59057200D02*
X149241700Y-59057200D01*
X101679600Y-59986500D02*
X102608900Y-59057200D01*
X149241700Y-59057200D02*
X149300000Y-59057200D01*
X149300000Y-59057200D02*
X149241700Y-59057200D01*
%TO.N,Net-(J1-Pin_5)*%
X119900000Y-61350000D02*
X125900000Y-61350000D01*
X163100000Y-61350000D02*
X157100000Y-61350000D01*
X156436100Y-60686100D02*
X157100000Y-61350000D01*
X155680100Y-60686100D02*
X156436100Y-60686100D01*
X88700000Y-73950000D02*
X82700000Y-73950000D01*
X118959700Y-62290300D02*
X119900000Y-61350000D01*
X105652200Y-62290300D02*
X118959700Y-62290300D01*
X94953100Y-72989400D02*
X105652200Y-62290300D01*
X89660600Y-72989400D02*
X94953100Y-72989400D01*
X88700000Y-73950000D02*
X89660600Y-72989400D01*
X175500000Y-61350000D02*
X169500000Y-61350000D01*
X169500000Y-61350000D02*
X163100000Y-61350000D01*
X155611000Y-60755200D02*
X155680100Y-60686100D01*
X152096800Y-60755200D02*
X155611000Y-60755200D01*
X151820800Y-60479200D02*
X152096800Y-60755200D01*
X126770700Y-60479200D02*
X151820800Y-60479200D01*
X126770700Y-60479300D02*
X126770700Y-60479200D01*
X125900000Y-61350000D02*
X126770700Y-60479300D01*
%TO.N,Net-(J1-Pin_4)*%
X139161500Y-49611500D02*
X138300000Y-48750000D01*
X151706400Y-49611500D02*
X139161500Y-49611500D01*
X152567900Y-48750000D02*
X151706400Y-49611500D01*
X157100000Y-48750000D02*
X152567900Y-48750000D01*
X101100000Y-73950000D02*
X95100000Y-73950000D01*
X104736300Y-70313700D02*
X105595700Y-70313700D01*
X101100000Y-73950000D02*
X104736300Y-70313700D01*
X138300000Y-48750000D02*
X132300000Y-48750000D01*
X113921100Y-50089600D02*
X110148900Y-50089600D01*
X116117300Y-47893400D02*
X113921100Y-50089600D01*
X131443400Y-47893400D02*
X116117300Y-47893400D01*
X132300000Y-48750000D02*
X131443400Y-47893400D01*
X162209600Y-49640400D02*
X158986300Y-49640400D01*
X163100000Y-48750000D02*
X162209600Y-49640400D01*
X158986300Y-49640400D02*
X158986300Y-51816500D01*
X157990400Y-49640400D02*
X158986300Y-49640400D01*
X157100000Y-48750000D02*
X157990400Y-49640400D01*
%TO.N,Net-(J1-Pin_8)*%
X150700000Y-86550000D02*
X146848000Y-86550000D01*
X146848000Y-86550000D02*
X144700000Y-86550000D01*
X146848000Y-86550000D02*
X146849600Y-86550000D01*
X107500000Y-73950000D02*
X111235100Y-73950000D01*
X111235100Y-73950000D02*
X113500000Y-73950000D01*
X107500000Y-48750000D02*
X109135900Y-48750000D01*
X109135900Y-48750000D02*
X113500000Y-48750000D01*
X116141300Y-76591300D02*
X113500000Y-73950000D01*
X147080800Y-76591300D02*
X116141300Y-76591300D01*
X147265600Y-76776100D02*
X147080800Y-76591300D01*
%TO.N,Net-(J1-Pin_1)*%
X169500000Y-52450000D02*
X172500000Y-52450000D01*
X172500000Y-52450000D02*
X175500000Y-52450000D01*
X166021800Y-53301000D02*
X164392400Y-54930400D01*
X169479800Y-53301000D02*
X166021800Y-53301000D01*
X170330800Y-52450000D02*
X169479800Y-53301000D01*
X172500000Y-52450000D02*
X170330800Y-52450000D01*
X169500000Y-65050000D02*
X175500000Y-65050000D01*
X168908100Y-64458100D02*
X169500000Y-65050000D01*
X167232600Y-64458100D02*
X168908100Y-64458100D01*
%TO.N,Net-(J1-Pin_3)*%
X138300000Y-86550000D02*
X132300000Y-86550000D01*
X157100000Y-73950000D02*
X160377000Y-73950000D01*
X163100000Y-73950000D02*
X160377000Y-73950000D01*
X140106000Y-84744000D02*
X138300000Y-86550000D01*
X151306800Y-84744000D02*
X140106000Y-84744000D01*
X95100000Y-48750000D02*
X101100000Y-48750000D01*
X158986200Y-49038700D02*
X158986300Y-49038700D01*
X158986200Y-48875400D02*
X158986200Y-49038700D01*
X157597900Y-47487100D02*
X158986200Y-48875400D01*
X102362900Y-47487100D02*
X157597900Y-47487100D01*
X101100000Y-48750000D02*
X102362900Y-47487100D01*
%TO.N,Net-(J1-Pin_2)*%
X119900000Y-86550000D02*
X125900000Y-86550000D01*
X133230700Y-79219300D02*
X164230800Y-79219300D01*
X125900000Y-86550000D02*
X133230700Y-79219300D01*
X175500000Y-73950000D02*
X169500000Y-73950000D01*
X175706700Y-79219300D02*
X164230800Y-79219300D01*
X176750000Y-78176000D02*
X175706700Y-79219300D01*
X176750000Y-75200000D02*
X176750000Y-78176000D01*
X175500000Y-73950000D02*
X176750000Y-75200000D01*
X82700000Y-48750000D02*
X88700000Y-48750000D01*
X90403700Y-47046300D02*
X88700000Y-48750000D01*
X163202200Y-47046300D02*
X90403700Y-47046300D01*
X164317100Y-48161200D02*
X163202200Y-47046300D01*
X164317100Y-49312100D02*
X164317100Y-48161200D01*
X162897100Y-50732100D02*
X164317100Y-49312100D01*
X162541200Y-50732100D02*
X162897100Y-50732100D01*
%TO.N,Net-(J1-Pin_7)*%
X119900000Y-73950000D02*
X125900000Y-73950000D01*
X156891300Y-86758700D02*
X157100000Y-86550000D01*
X155138400Y-86758700D02*
X156891300Y-86758700D01*
X157100000Y-86550000D02*
X163100000Y-86550000D01*
X127852300Y-75902300D02*
X125900000Y-73950000D01*
X155138200Y-75902300D02*
X127852300Y-75902300D01*
X119900000Y-48750000D02*
X125900000Y-48750000D01*
X152595600Y-50033300D02*
X152782800Y-49846100D01*
X127183300Y-50033300D02*
X152595600Y-50033300D01*
X125900000Y-48750000D02*
X127183300Y-50033300D01*
%TO.N,Net-(J1-Pin_9)*%
X144700000Y-73950000D02*
X150700000Y-73950000D01*
X138300000Y-73950000D02*
X132300000Y-73950000D01*
X150614400Y-74035600D02*
X150700000Y-73950000D01*
X148915700Y-74035600D02*
X150614400Y-74035600D01*
X95100000Y-61350000D02*
X101100000Y-61350000D01*
X152258300Y-60065900D02*
X152300000Y-60107600D01*
X102451100Y-60065900D02*
X152258300Y-60065900D01*
X101167000Y-61350000D02*
X102451100Y-60065900D01*
X101100000Y-61350000D02*
X101167000Y-61350000D01*
X138300000Y-73950000D02*
X144700000Y-73950000D01*
%TO.N,Net-(J1-Pin_10)*%
X82700000Y-61350000D02*
X88700000Y-61350000D01*
X89572100Y-62222100D02*
X99140900Y-62222100D01*
X88700000Y-61350000D02*
X89572100Y-62222100D01*
X107218300Y-86268300D02*
X107500000Y-86550000D01*
X102988800Y-86268300D02*
X107218300Y-86268300D01*
X107500000Y-86550000D02*
X113500000Y-86550000D01*
X175500000Y-86550000D02*
X169500000Y-86550000D01*
X114367200Y-87417200D02*
X146892100Y-87417200D01*
X113500000Y-86550000D02*
X114367200Y-87417200D01*
X168632800Y-87417200D02*
X169500000Y-86550000D01*
X146892100Y-87417200D02*
X168632800Y-87417200D01*
%TD*%
M02*
